<?xml version="1.0" encoding="utf-8" standalone="no"?>
<!DOCTYPE svg PUBLIC "-//W3C//DTD SVG 1.1//EN"
  "http://www.w3.org/Graphics/SVG/1.1/DTD/svg11.dtd">
<svg xmlns:xlink="http://www.w3.org/1999/xlink" width="856.558125pt" height="351.99625pt" viewBox="0 0 856.558125 351.99625" xmlns="http://www.w3.org/2000/svg" version="1.1">
 <metadata>
  <rdf:RDF xmlns:dc="http://purl.org/dc/elements/1.1/" xmlns:cc="http://creativecommons.org/ns#" xmlns:rdf="http://www.w3.org/1999/02/22-rdf-syntax-ns#">
   <cc:Work>
    <dc:type rdf:resource="http://purl.org/dc/dcmitype/StillImage"/>
    <dc:date>2025-08-27T13:42:12.310944</dc:date>
    <dc:format>image/svg+xml</dc:format>
    <dc:creator>
     <cc:Agent>
      <dc:title>Matplotlib v3.10.0, https://matplotlib.org/</dc:title>
     </cc:Agent>
    </dc:creator>
   </cc:Work>
  </rdf:RDF>
 </metadata>
 <defs>
  <style type="text/css">*{stroke-linejoin: round; stroke-linecap: butt}</style>
 </defs>
 <g id="figure_1">
  <g id="patch_1">
   <path d="M 0 351.99625 
L 856.558125 351.99625 
L 856.558125 0 
L 0 0 
z
" style="fill: #ffffff"/>
  </g>
  <g id="axes_1">
   <g id="patch_2">
    <path d="M 46.965625 314.44 
L 503.407625 314.44 
L 503.407625 7.2 
L 46.965625 7.2 
z
" style="fill: #ffffff"/>
   </g>
   <g id="FillBetweenPolyCollection_1">
    <defs>
     <path id="mab1a39fb81" d="M 46.965625 -147.109682 
L 46.965625 -121.923264 
L 50.833778 -133.926753 
L 54.70193 -146.750555 
L 58.570083 -160.018218 
L 62.438235 -173.388491 
L 66.306388 -185.957146 
L 70.17454 -197.631307 
L 74.042693 -202.439927 
L 77.910845 -200.087545 
L 81.778998 -189.540909 
L 85.64715 -169.67379 
L 89.515303 -146.293707 
L 93.383456 -124.016271 
L 97.251608 -105.127821 
L 101.119761 -91.717228 
L 104.987913 -82.075973 
L 108.856066 -75.614668 
L 112.724218 -71.730378 
L 116.592371 -69.46825 
L 120.460523 -68.219903 
L 124.328676 -68.197458 
L 128.196828 -69.112803 
L 132.064981 -70.835492 
L 135.933133 -73.425343 
L 139.801286 -77.164702 
L 143.669439 -81.675226 
L 147.537591 -87.376613 
L 151.405744 -93.961789 
L 155.273896 -101.834123 
L 159.142049 -110.858249 
L 163.010201 -120.584901 
L 166.878354 -131.714718 
L 170.746506 -143.209554 
L 174.614659 -155.372983 
L 178.482811 -167.744469 
L 182.350964 -180.074642 
L 186.219117 -190.701745 
L 190.087269 -198.732857 
L 193.955422 -200.531611 
L 197.823574 -193.558292 
L 201.691727 -176.929718 
L 205.559879 -153.026603 
L 209.428032 -128.676617 
L 213.296184 -108.118391 
L 217.164337 -93.511035 
L 221.032489 -82.986926 
L 224.900642 -76.511159 
L 228.768794 -71.710409 
L 232.636947 -69.106304 
L 236.5051 -67.688843 
L 240.373252 -67.561074 
L 244.241405 -68.223427 
L 248.109557 -69.686061 
L 251.97771 -71.876929 
L 255.845862 -75.028825 
L 259.714015 -78.973305 
L 263.582167 -83.96733 
L 267.45032 -89.979735 
L 271.318472 -96.619468 
L 275.186625 -103.952952 
L 275.186625 -130.087499 
L 275.186625 -130.087499 
L 271.318472 -119.259362 
L 267.45032 -110.057077 
L 263.582167 -101.660285 
L 259.714015 -95.029692 
L 255.845862 -89.455551 
L 251.97771 -85.180998 
L 248.109557 -82.25144 
L 244.241405 -80.193856 
L 240.373252 -79.510673 
L 236.5051 -80.133987 
L 232.636947 -82.364163 
L 228.768794 -86.306118 
L 224.900642 -92.708093 
L 221.032489 -103.451896 
L 217.164337 -119.599426 
L 213.296184 -142.995612 
L 209.428032 -171.268483 
L 205.559879 -202.402873 
L 201.691727 -236.210116 
L 197.823574 -259.285891 
L 193.955422 -272.569094 
L 190.087269 -267.251219 
L 186.219117 -254.366162 
L 182.350964 -235.345528 
L 178.482811 -213.107248 
L 174.614659 -191.980664 
L 170.746506 -172.359735 
L 166.878354 -155.826951 
L 163.010201 -141.546369 
L 159.142049 -129.0518 
L 155.273896 -118.132163 
L 151.405744 -109.025283 
L 147.537591 -101.541608 
L 143.669439 -94.977163 
L 139.801286 -90.159224 
L 135.933133 -86.137956 
L 132.064981 -83.100329 
L 128.196828 -80.794347 
L 124.328676 -79.650265 
L 120.460523 -79.394214 
L 116.592371 -80.944622 
L 112.724218 -83.759931 
L 108.856066 -89.263663 
L 104.987913 -98.484673 
L 101.119761 -112.875736 
L 97.251608 -133.972663 
L 93.383456 -161.522323 
L 89.515303 -193.680657 
L 85.64715 -226.911047 
L 81.778998 -254.035148 
L 77.910845 -269.026644 
L 74.042693 -271.378545 
L 70.17454 -261.374118 
L 66.306388 -242.85011 
L 62.438235 -222.854349 
L 58.570083 -200.704177 
L 54.70193 -180.830812 
L 50.833778 -162.75428 
L 46.965625 -147.109682 
z
" style="stroke: #ff0000; stroke-opacity: 0.3"/>
    </defs>
    <g clip-path="url(#p869c2b589e)">
     <use xlink:href="#mab1a39fb81" x="0" y="351.99625" style="fill: #ff0000; fill-opacity: 0.3; stroke: #ff0000; stroke-opacity: 0.3"/>
    </g>
   </g>
   <g id="FillBetweenPolyCollection_2">
    <defs>
     <path id="m7f6e554b5b" d="M 46.965625 -56.812411 
L 46.965625 -51.126581 
L 50.833778 -51.488704 
L 54.70193 -52.642132 
L 58.570083 -54.460491 
L 62.438235 -57.378422 
L 66.306388 -61.112995 
L 70.17454 -67.16037 
L 74.042693 -77.257947 
L 77.910845 -91.42455 
L 81.778998 -107.708172 
L 85.64715 -125.180525 
L 89.515303 -137.866209 
L 93.383456 -144.020516 
L 97.251608 -143.266286 
L 101.119761 -137.005451 
L 104.987913 -128.124438 
L 108.856066 -118.182184 
L 112.724218 -108.285701 
L 116.592371 -98.244561 
L 120.460523 -89.606646 
L 124.328676 -82.057804 
L 128.196828 -75.160176 
L 132.064981 -69.413286 
L 135.933133 -64.667723 
L 139.801286 -60.962546 
L 143.669439 -57.910528 
L 147.537591 -55.576239 
L 151.405744 -53.764726 
L 155.273896 -52.541324 
L 159.142049 -51.707837 
L 163.010201 -51.500209 
L 166.878354 -51.775969 
L 170.746506 -52.453776 
L 174.614659 -53.936958 
L 178.482811 -56.378929 
L 182.350964 -59.906108 
L 186.219117 -65.410296 
L 190.087269 -73.769464 
L 193.955422 -85.808082 
L 197.823574 -101.477926 
L 201.691727 -118.463077 
L 205.559879 -132.935809 
L 209.428032 -142.088619 
L 213.296184 -143.683177 
L 217.164337 -138.57647 
L 221.032489 -129.249571 
L 224.900642 -119.101988 
L 228.768794 -108.907003 
L 232.636947 -99.288601 
L 236.5051 -90.384539 
L 240.373252 -82.740918 
L 244.241405 -75.720391 
L 248.109557 -69.93716 
L 251.97771 -65.232772 
L 255.845862 -61.486119 
L 259.714015 -58.497786 
L 263.582167 -56.044457 
L 267.45032 -54.160727 
L 271.318472 -52.844231 
L 275.186625 -51.876971 
L 275.186625 -57.404548 
L 275.186625 -57.404548 
L 271.318472 -58.666275 
L 267.45032 -60.640746 
L 263.582167 -63.108242 
L 259.714015 -66.250774 
L 255.845862 -70.432927 
L 251.97771 -75.667476 
L 248.109557 -82.010165 
L 244.241405 -89.730251 
L 240.373252 -99.230985 
L 236.5051 -110.92463 
L 232.636947 -124.800199 
L 228.768794 -141.03715 
L 224.900642 -157.813782 
L 221.032489 -175.089747 
L 217.164337 -188.748827 
L 213.296184 -195.149241 
L 209.428032 -192.717956 
L 205.559879 -180.422717 
L 201.691727 -159.04895 
L 197.823574 -134.755426 
L 193.955422 -111.143699 
L 190.087269 -92.96807 
L 186.219117 -79.511191 
L 182.350964 -70.282929 
L 178.482811 -64.055868 
L 174.614659 -60.266339 
L 170.746506 -58.114498 
L 166.878354 -57.123807 
L 163.010201 -56.953245 
L 159.142049 -57.296587 
L 155.273896 -58.226433 
L 151.405744 -59.722663 
L 147.537591 -61.896265 
L 143.669439 -64.854516 
L 139.801286 -68.556818 
L 135.933133 -73.18939 
L 132.064981 -78.8679 
L 128.196828 -85.8617 
L 124.328676 -94.783026 
L 120.460523 -105.386618 
L 116.592371 -117.925239 
L 112.724218 -132.41998 
L 108.856066 -148.643238 
L 104.987913 -165.595491 
L 101.119761 -182.887078 
L 97.251608 -194.154434 
L 93.383456 -195.818295 
L 89.515303 -187.738285 
L 85.64715 -168.39232 
L 81.778998 -141.561288 
L 77.910845 -117.86874 
L 74.042693 -97.381836 
L 70.17454 -82.892366 
L 66.306388 -72.416615 
L 62.438235 -66.012754 
L 58.570083 -61.594954 
L 54.70193 -58.811772 
L 50.833778 -57.385929 
L 46.965625 -56.812411 
z
" style="stroke: #0000ff; stroke-opacity: 0.3"/>
    </defs>
    <g clip-path="url(#p869c2b589e)">
     <use xlink:href="#m7f6e554b5b" x="0" y="351.99625" style="fill: #0000ff; fill-opacity: 0.3; stroke: #0000ff; stroke-opacity: 0.3"/>
    </g>
   </g>
   <g id="FillBetweenPolyCollection_3">
    <defs>
     <path id="mcf8b89f9a6" d="M 275.186625 -130.087499 
L 275.186625 -103.952952 
L 279.054778 -113.109576 
L 282.92293 -121.220891 
L 286.791083 -129.168921 
L 290.659235 -136.327636 
L 294.527388 -142.563125 
L 298.39554 -146.815319 
L 302.263693 -148.878239 
L 306.131845 -149.169356 
L 309.999998 -145.629617 
L 313.86815 -141.275738 
L 317.736303 -136.179988 
L 321.604456 -130.717123 
L 325.472608 -125.645608 
L 329.340761 -121.623779 
L 333.208913 -117.963182 
L 337.077066 -115.156235 
L 340.945218 -112.950352 
L 344.813371 -111.710302 
L 348.681523 -111.155929 
L 352.549676 -111.082046 
L 356.417828 -111.038985 
L 360.285981 -111.907011 
L 364.154133 -112.653881 
L 368.022286 -113.842221 
L 371.890439 -115.155203 
L 375.758591 -116.287084 
L 379.626744 -117.660018 
L 383.494896 -119.082869 
L 387.363049 -120.487364 
L 391.231201 -121.826436 
L 395.099354 -123.111826 
L 398.967506 -124.222988 
L 402.835659 -125.016194 
L 406.703811 -125.233813 
L 410.571964 -125.188235 
L 414.440117 -125.038545 
L 418.308269 -125.092128 
L 422.176422 -124.665739 
L 426.044574 -124.158436 
L 429.912727 -123.643008 
L 433.780879 -123.138121 
L 437.649032 -122.609296 
L 441.517184 -122.195124 
L 445.385337 -121.831351 
L 449.253489 -121.511654 
L 453.121642 -121.292771 
L 456.989794 -121.169035 
L 460.857947 -121.130307 
L 464.7261 -121.147102 
L 468.594252 -121.184464 
L 472.462405 -121.251011 
L 476.330557 -121.371959 
L 480.19871 -121.517072 
L 484.066862 -121.66329 
L 487.935015 -121.801072 
L 491.803167 -121.92327 
L 495.67132 -122.025214 
L 499.539472 -122.104616 
L 503.407625 -122.16132 
L 503.407625 -142.194921 
L 503.407625 -142.194921 
L 499.539472 -142.189114 
L 495.67132 -142.176503 
L 491.803167 -142.155308 
L 487.935015 -142.124286 
L 484.066862 -142.083008 
L 480.19871 -142.032133 
L 476.330557 -141.973627 
L 472.462405 -141.910919 
L 468.594252 -141.848947 
L 464.7261 -141.794079 
L 460.857947 -141.753888 
L 456.989794 -141.760876 
L 453.121642 -141.828764 
L 449.253489 -141.924243 
L 445.385337 -141.915271 
L 441.517184 -142.121129 
L 437.649032 -142.389569 
L 433.780879 -142.760712 
L 429.912727 -143.121147 
L 426.044574 -143.518319 
L 422.176422 -143.952559 
L 418.308269 -144.395493 
L 414.440117 -144.758792 
L 410.571964 -144.838938 
L 406.703811 -144.854143 
L 402.835659 -144.851204 
L 398.967506 -144.638417 
L 395.099354 -144.047616 
L 391.231201 -143.315719 
L 387.363049 -142.72979 
L 383.494896 -141.586642 
L 379.626744 -140.652817 
L 375.758591 -139.36075 
L 371.890439 -137.663556 
L 368.022286 -136.141327 
L 364.154133 -134.77433 
L 360.285981 -133.513033 
L 356.417828 -132.644391 
L 352.549676 -132.369581 
L 348.681523 -132.543579 
L 344.813371 -133.489511 
L 340.945218 -135.437611 
L 337.077066 -138.595702 
L 333.208913 -142.384148 
L 329.340761 -146.505601 
L 325.472608 -150.916579 
L 321.604456 -156.493086 
L 317.736303 -161.405738 
L 313.86815 -166.878673 
L 309.999998 -171.296825 
L 306.131845 -174.000695 
L 302.263693 -175.849595 
L 298.39554 -175.798152 
L 294.527388 -173.25234 
L 290.659235 -168.854739 
L 286.791083 -161.454814 
L 282.92293 -152.147122 
L 279.054778 -141.38433 
L 275.186625 -130.087499 
z
" style="stroke: #ff0000; stroke-opacity: 0.3"/>
    </defs>
    <g clip-path="url(#p869c2b589e)">
     <use xlink:href="#mcf8b89f9a6" x="0" y="351.99625" style="fill: #ff0000; fill-opacity: 0.3; stroke: #ff0000; stroke-opacity: 0.3"/>
    </g>
   </g>
   <g id="FillBetweenPolyCollection_4">
    <defs>
     <path id="m511641b79c" d="M 275.186625 -57.404548 
L 275.186625 -51.876971 
L 279.054778 -55.749696 
L 282.92293 -59.327898 
L 286.791083 -63.463433 
L 290.659235 -67.749085 
L 294.527388 -72.462483 
L 298.39554 -77.119109 
L 302.263693 -81.640282 
L 306.131845 -86.172784 
L 309.999998 -90.159001 
L 313.86815 -93.318834 
L 317.736303 -95.515692 
L 321.604456 -96.244333 
L 325.472608 -96.230443 
L 329.340761 -95.789811 
L 333.208913 -94.544758 
L 337.077066 -92.864246 
L 340.945218 -91.110501 
L 344.813371 -89.400669 
L 348.681523 -87.797083 
L 352.549676 -86.392771 
L 356.417828 -85.277627 
L 360.285981 -84.43286 
L 364.154133 -83.785404 
L 368.022286 -83.199028 
L 371.890439 -82.878912 
L 375.758591 -82.690461 
L 379.626744 -82.738673 
L 383.494896 -82.914238 
L 387.363049 -83.281191 
L 391.231201 -83.703893 
L 395.099354 -84.20489 
L 398.967506 -84.691634 
L 402.835659 -85.122821 
L 406.703811 -85.502948 
L 410.571964 -85.987453 
L 414.440117 -86.405138 
L 418.308269 -86.621935 
L 422.176422 -86.796529 
L 426.044574 -86.913648 
L 429.912727 -86.965203 
L 433.780879 -86.960182 
L 437.649032 -86.909462 
L 441.517184 -86.824815 
L 445.385337 -86.704192 
L 449.253489 -86.577895 
L 453.121642 -86.469696 
L 456.989794 -86.36671 
L 460.857947 -86.265418 
L 464.7261 -86.134124 
L 468.594252 -86.073336 
L 472.462405 -86.038188 
L 476.330557 -86.019106 
L 480.19871 -86.013892 
L 484.066862 -86.019811 
L 487.935015 -86.033879 
L 491.803167 -86.053119 
L 495.67132 -86.074773 
L 499.539472 -86.096461 
L 503.407625 -86.116295 
L 503.407625 -99.243943 
L 503.407625 -99.243943 
L 499.539472 -99.168193 
L 495.67132 -99.091574 
L 491.803167 -99.021432 
L 487.935015 -98.966148 
L 484.066862 -98.937599 
L 480.19871 -98.993716 
L 476.330557 -99.053197 
L 472.462405 -99.201984 
L 468.594252 -99.421633 
L 464.7261 -99.652777 
L 460.857947 -99.902901 
L 456.989794 -100.188501 
L 453.121642 -100.498722 
L 449.253489 -100.815587 
L 445.385337 -101.172079 
L 441.517184 -101.461239 
L 437.649032 -101.737415 
L 433.780879 -101.876234 
L 429.912727 -102.010231 
L 426.044574 -101.867765 
L 422.176422 -101.495981 
L 418.308269 -101.04382 
L 414.440117 -100.449637 
L 410.571964 -99.945848 
L 406.703811 -99.038588 
L 402.835659 -97.916298 
L 398.967506 -96.831341 
L 395.099354 -95.84682 
L 391.231201 -94.836265 
L 387.363049 -93.978222 
L 383.494896 -93.203558 
L 379.626744 -92.667924 
L 375.758591 -93.02987 
L 371.890439 -93.476735 
L 368.022286 -94.353784 
L 364.154133 -95.780792 
L 360.285981 -97.683689 
L 356.417828 -100.070152 
L 352.549676 -102.832344 
L 348.681523 -105.854884 
L 344.813371 -108.966589 
L 340.945218 -111.739477 
L 337.077066 -114.851386 
L 333.208913 -117.689911 
L 329.340761 -119.526688 
L 325.472608 -121.259962 
L 321.604456 -121.011511 
L 317.736303 -118.793787 
L 313.86815 -116.350278 
L 309.999998 -112.732899 
L 306.131845 -107.257726 
L 302.263693 -101.10345 
L 298.39554 -94.240831 
L 294.527388 -86.901118 
L 290.659235 -79.760628 
L 286.791083 -73.126934 
L 282.92293 -66.881243 
L 279.054778 -61.576462 
L 275.186625 -57.404548 
z
" style="stroke: #0000ff; stroke-opacity: 0.3"/>
    </defs>
    <g clip-path="url(#p869c2b589e)">
     <use xlink:href="#m511641b79c" x="0" y="351.99625" style="fill: #0000ff; fill-opacity: 0.3; stroke: #0000ff; stroke-opacity: 0.3"/>
    </g>
   </g>
   <g id="FillBetweenPolyCollection_5">
    <defs>
     <path id="m76c0c8a219" d="M 46.965625 -174.314175 
L 46.965625 -105.140604 
L 50.833778 -114.756305 
L 54.70193 -125.02914 
L 58.570083 -135.65754 
L 62.438235 -146.368139 
L 66.306388 -156.436582 
L 70.17454 -165.788466 
L 74.042693 -169.640534 
L 77.910845 -167.756099 
L 81.778998 -159.307446 
L 85.64715 -143.392382 
L 89.515303 -124.663169 
L 93.383456 -106.81726 
L 97.251608 -91.686185 
L 101.119761 -80.943286 
L 104.987913 -73.219912 
L 108.856066 -68.043918 
L 112.724218 -64.932309 
L 116.592371 -63.120173 
L 120.460523 -62.120153 
L 124.328676 -62.102173 
L 128.196828 -62.835433 
L 132.064981 -64.215438 
L 135.933133 -66.290104 
L 139.801286 -69.285613 
L 143.669439 -72.898883 
L 147.537591 -77.466126 
L 151.405744 -82.741349 
L 155.273896 -89.047683 
L 159.142049 -96.27669 
L 163.010201 -104.068473 
L 166.878354 -112.984298 
L 170.746506 -122.19253 
L 174.614659 -131.936356 
L 178.482811 -141.846851 
L 182.350964 -151.724252 
L 186.219117 -160.237364 
L 190.087269 -166.670891 
L 193.955422 -168.111829 
L 197.823574 -162.525674 
L 201.691727 -149.204929 
L 205.559879 -130.056728 
L 209.428032 -110.550549 
L 213.296184 -94.081857 
L 217.164337 -82.380261 
L 221.032489 -73.949654 
L 224.900642 -68.762076 
L 228.768794 -64.916312 
L 232.636947 -62.830227 
L 236.5051 -61.694734 
L 240.373252 -61.592381 
L 244.241405 -62.122976 
L 248.109557 -63.294656 
L 251.97771 -65.049707 
L 255.845862 -67.574614 
L 259.714015 -70.734441 
L 263.582167 -74.735032 
L 267.45032 -79.551423 
L 271.318472 -84.870351 
L 275.186625 -90.745025 
L 275.186625 -153.065015 
L 275.186625 -153.065015 
L 271.318472 -139.548017 
L 267.45032 -128.060605 
L 263.582167 -117.578708 
L 259.714015 -109.301594 
L 255.845862 -102.343274 
L 251.97771 -97.007256 
L 248.109557 -93.350224 
L 244.241405 -90.781699 
L 240.373252 -89.928866 
L 236.5051 -90.706963 
L 232.636947 -93.490939 
L 228.768794 -98.411767 
L 224.900642 -106.403491 
L 221.032489 -119.815214 
L 217.164337 -139.972526 
L 213.296184 -169.178492 
L 209.428032 -204.472131 
L 205.559879 -243.337865 
L 201.691727 -285.540179 
L 197.823574 -314.346169 
L 193.955422 -330.927881 
L 190.087269 -324.289462 
L 186.219117 -308.204766 
L 182.350964 -284.460895 
L 178.482811 -256.700368 
L 174.614659 -230.327596 
L 170.746506 -205.834364 
L 166.878354 -185.196131 
L 163.010201 -167.369371 
L 159.142049 -151.77213 
L 155.273896 -138.14091 
L 151.405744 -126.772594 
L 147.537591 -117.430561 
L 143.669439 -109.236021 
L 139.801286 -103.221683 
L 135.933133 -98.201847 
L 132.064981 -94.409912 
L 128.196828 -91.531304 
L 124.328676 -90.103122 
L 120.460523 -89.783488 
L 116.592371 -91.718896 
L 112.724218 -95.233307 
L 108.856066 -102.103735 
L 104.987913 -113.614521 
L 101.119761 -131.579198 
L 97.251608 -157.91495 
L 93.383456 -192.305787 
L 89.515303 -232.449733 
L 85.64715 -273.93195 
L 81.778998 -307.791553 
L 77.910845 -326.505764 
L 74.042693 -329.441692 
L 70.17454 -316.952949 
L 66.306388 -293.829029 
L 62.438235 -268.867885 
L 58.570083 -241.217345 
L 54.70193 -216.408993 
L 50.833778 -193.843666 
L 46.965625 -174.314175 
z
" style="stroke: #ff0000; stroke-opacity: 0.15"/>
    </defs>
    <g clip-path="url(#p869c2b589e)">
     <use xlink:href="#m76c0c8a219" x="0" y="351.99625" style="fill: #ff0000; fill-opacity: 0.15; stroke: #ff0000; stroke-opacity: 0.15"/>
    </g>
   </g>
   <g id="FillBetweenPolyCollection_6">
    <defs>
     <path id="m5eb466b609" d="M 46.965625 -61.594133 
L 46.965625 -48.427111 
L 50.833778 -48.717199 
L 54.70193 -49.641182 
L 58.570083 -51.097825 
L 62.438235 -53.435307 
L 66.306388 -56.426983 
L 70.17454 -61.271387 
L 74.042693 -69.36031 
L 77.910845 -80.708829 
L 81.778998 -93.753241 
L 85.64715 -107.749916 
L 89.515303 -117.912107 
L 93.383456 -122.842172 
L 97.251608 -122.237976 
L 101.119761 -117.222575 
L 104.987913 -110.108212 
L 108.856066 -102.143715 
L 112.724218 -94.215885 
L 116.592371 -86.172173 
L 120.460523 -79.252551 
L 124.328676 -73.205357 
L 128.196828 -67.679837 
L 132.064981 -63.076143 
L 135.933133 -59.274589 
L 139.801286 -56.306462 
L 143.669439 -53.861565 
L 147.537591 -51.991623 
L 151.405744 -50.540464 
L 155.273896 -49.560427 
L 159.142049 -48.89274 
L 163.010201 -48.726415 
L 166.878354 -48.947319 
L 170.746506 -49.490294 
L 174.614659 -50.678435 
L 178.482811 -52.634639 
L 182.350964 -55.460175 
L 186.219117 -59.869445 
L 190.087269 -66.565771 
L 193.955422 -76.209613 
L 197.823574 -88.762342 
L 201.691727 -102.368732 
L 205.559879 -113.962484 
L 209.428032 -121.294576 
L 213.296184 -122.571938 
L 217.164337 -118.48108 
L 221.032489 -111.009529 
L 224.900642 -102.880548 
L 228.768794 -94.713595 
L 232.636947 -87.008527 
L 236.5051 -79.875702 
L 240.373252 -73.752584 
L 244.241405 -68.128611 
L 248.109557 -63.495806 
L 251.97771 -59.727236 
L 255.845862 -56.725884 
L 259.714015 -54.332003 
L 263.582167 -52.366701 
L 267.45032 -50.857691 
L 271.318472 -49.803078 
L 275.186625 -49.02823 
L 275.186625 -62.333311 
L 275.186625 -62.333311 
L 271.318472 -63.908352 
L 267.45032 -66.373127 
L 263.582167 -69.453356 
L 259.714015 -73.376246 
L 255.845862 -78.596919 
L 251.97771 -85.13132 
L 248.109557 -93.049036 
L 244.241405 -102.686187 
L 240.373252 -114.546159 
L 236.5051 -129.143591 
L 232.636947 -146.464764 
L 228.768794 -166.733702 
L 224.900642 -187.676335 
L 221.032489 -209.242297 
L 217.164337 -226.293223 
L 213.296184 -234.282999 
L 209.428032 -231.247972 
L 205.559879 -215.899559 
L 201.691727 -189.218222 
L 197.823574 -158.892089 
L 193.955422 -129.417058 
L 190.087269 -106.728027 
L 186.219117 -89.929512 
L 182.350964 -78.409674 
L 178.482811 -70.636297 
L 174.614659 -65.905746 
L 170.746506 -63.219557 
L 166.878354 -61.982856 
L 163.010201 -61.76994 
L 159.142049 -62.19854 
L 155.273896 -63.359288 
L 151.405744 -65.227064 
L 147.537591 -67.940419 
L 143.669439 -71.633268 
L 139.801286 -76.254931 
L 135.933133 -82.037871 
L 132.064981 -89.126479 
L 128.196828 -97.856991 
L 124.328676 -108.993676 
L 120.460523 -122.230369 
L 116.592371 -137.882602 
L 112.724218 -155.976702 
L 108.856066 -176.228547 
L 104.987913 -197.390411 
L 101.119761 -218.975875 
L 97.251608 -233.04116 
L 93.383456 -235.118193 
L 89.515303 -225.031742 
L 85.64715 -200.881754 
L 81.778998 -167.387995 
L 77.910845 -137.812074 
L 74.042693 -112.237827 
L 70.17454 -94.150307 
L 66.306388 -81.0732 
L 62.438235 -73.079122 
L 58.570083 -67.564285 
L 54.70193 -64.089979 
L 50.833778 -62.310068 
L 46.965625 -61.594133 
z
" style="stroke: #0000ff; stroke-opacity: 0.15"/>
    </defs>
    <g clip-path="url(#p869c2b589e)">
     <use xlink:href="#m5eb466b609" x="0" y="351.99625" style="fill: #0000ff; fill-opacity: 0.15; stroke: #0000ff; stroke-opacity: 0.15"/>
    </g>
   </g>
   <g id="FillBetweenPolyCollection_7">
    <defs>
     <path id="m52a7384261" d="M 275.186625 -153.065015 
L 275.186625 -90.745025 
L 279.054778 -98.080173 
L 282.92293 -104.577949 
L 286.791083 -110.944922 
L 290.659235 -116.679593 
L 294.527388 -121.674692 
L 298.39554 -125.08102 
L 302.263693 -126.733575 
L 306.131845 -126.966782 
L 309.999998 -124.131183 
L 313.86815 -120.643397 
L 317.736303 -116.561317 
L 321.604456 -112.185149 
L 325.472608 -108.122482 
L 329.340761 -104.900693 
L 333.208913 -101.968279 
L 337.077066 -99.719701 
L 340.945218 -97.952623 
L 344.813371 -96.959249 
L 348.681523 -96.515154 
L 352.549676 -96.455968 
L 356.417828 -96.421473 
L 360.285981 -97.116828 
L 364.154133 -97.715127 
L 368.022286 -98.667077 
L 371.890439 -99.718875 
L 375.758591 -100.625598 
L 379.626744 -101.725421 
L 383.494896 -102.865232 
L 387.363049 -103.990339 
L 391.231201 -105.063037 
L 395.099354 -106.092731 
L 398.967506 -106.982856 
L 402.835659 -107.618274 
L 406.703811 -107.792603 
L 410.571964 -107.756092 
L 414.440117 -107.636179 
L 418.308269 -107.679103 
L 422.176422 -107.337533 
L 426.044574 -106.931145 
L 429.912727 -106.518248 
L 433.780879 -106.113795 
L 437.649032 -105.690167 
L 441.517184 -105.358383 
L 445.385337 -105.066974 
L 449.253489 -104.810872 
L 453.121642 -104.635531 
L 456.989794 -104.536409 
L 460.857947 -104.505385 
L 464.7261 -104.518839 
L 468.594252 -104.548769 
L 472.462405 -104.602078 
L 476.330557 -104.698966 
L 480.19871 -104.815213 
L 484.066862 -104.932345 
L 487.935015 -105.042718 
L 491.803167 -105.140608 
L 495.67132 -105.222273 
L 499.539472 -105.28588 
L 503.407625 -105.331304 
L 503.407625 -168.178972 
L 503.407625 -168.178972 
L 499.539472 -168.171723 
L 495.67132 -168.155981 
L 491.803167 -168.129523 
L 487.935015 -168.090797 
L 484.066862 -168.039269 
L 480.19871 -167.975761 
L 476.330557 -167.902727 
L 472.462405 -167.824447 
L 468.594252 -167.747085 
L 464.7261 -167.678593 
L 460.857947 -167.628422 
L 456.989794 -167.637144 
L 453.121642 -167.72189 
L 449.253489 -167.841079 
L 445.385337 -167.829879 
L 441.517184 -168.086857 
L 437.649032 -168.421956 
L 433.780879 -168.885262 
L 429.912727 -169.335201 
L 426.044574 -169.830998 
L 422.176422 -170.37307 
L 418.308269 -170.925994 
L 414.440117 -171.379508 
L 410.571964 -171.479557 
L 406.703811 -171.498537 
L 402.835659 -171.494868 
L 398.967506 -171.229242 
L 395.099354 -170.491732 
L 391.231201 -169.578089 
L 387.363049 -168.846661 
L 383.494896 -167.419645 
L 379.626744 -166.25393 
L 375.758591 -164.641015 
L 371.890439 -162.522371 
L 368.022286 -160.62214 
L 364.154133 -158.915688 
L 360.285981 -157.341183 
L 356.417828 -156.256838 
L 352.549676 -155.913787 
L 348.681523 -156.130993 
L 344.813371 -157.311821 
L 340.945218 -159.743676 
L 337.077066 -163.685989 
L 333.208913 -168.415188 
L 329.340761 -173.560087 
L 325.472608 -179.066408 
L 321.604456 -186.027682 
L 317.736303 -192.160252 
L 313.86815 -198.992236 
L 309.999998 -204.507511 
L 306.131845 -207.88281 
L 302.263693 -210.190832 
L 298.39554 -210.126615 
L 294.527388 -206.948622 
L 290.659235 -201.459002 
L 286.791083 -192.221515 
L 282.92293 -180.602521 
L 279.054778 -167.167094 
L 275.186625 -153.065015 
z
" style="stroke: #ff0000; stroke-opacity: 0.15"/>
    </defs>
    <g clip-path="url(#p869c2b589e)">
     <use xlink:href="#m52a7384261" x="0" y="351.99625" style="fill: #ff0000; fill-opacity: 0.15; stroke: #ff0000; stroke-opacity: 0.15"/>
    </g>
   </g>
   <g id="FillBetweenPolyCollection_8">
    <defs>
     <path id="m977dbeb3af" d="M 275.186625 -60.891224 
L 275.186625 -49.639495 
L 279.054778 -53.51222 
L 282.92293 -57.090422 
L 286.791083 -61.225956 
L 290.659235 -65.511609 
L 294.527388 -70.225006 
L 298.39554 -74.881632 
L 302.263693 -79.402805 
L 306.131845 -83.935307 
L 309.999998 -87.921524 
L 313.86815 -91.081357 
L 317.736303 -93.278215 
L 321.604456 -94.006856 
L 325.472608 -93.992966 
L 329.340761 -93.552334 
L 333.208913 -92.307281 
L 337.077066 -90.626769 
L 340.945218 -88.873024 
L 344.813371 -87.163192 
L 348.681523 -85.559606 
L 352.549676 -84.155294 
L 356.417828 -83.04015 
L 360.285981 -82.195383 
L 364.154133 -81.547927 
L 368.022286 -80.961551 
L 371.890439 -80.641435 
L 375.758591 -80.452984 
L 379.626744 -80.501196 
L 383.494896 -80.676761 
L 387.363049 -81.043714 
L 391.231201 -81.466416 
L 395.099354 -81.967414 
L 398.967506 -82.454157 
L 402.835659 -82.885344 
L 406.703811 -83.265471 
L 410.571964 -83.749976 
L 414.440117 -84.167661 
L 418.308269 -84.384458 
L 422.176422 -84.559052 
L 426.044574 -84.676171 
L 429.912727 -84.727726 
L 433.780879 -84.722705 
L 437.649032 -84.671985 
L 441.517184 -84.587338 
L 445.385337 -84.466715 
L 449.253489 -84.340418 
L 453.121642 -84.232219 
L 456.989794 -84.129233 
L 460.857947 -84.027941 
L 464.7261 -83.896647 
L 468.594252 -83.835859 
L 472.462405 -83.800711 
L 476.330557 -83.781629 
L 480.19871 -83.776415 
L 484.066862 -83.782335 
L 487.935015 -83.796402 
L 491.803167 -83.815642 
L 495.67132 -83.837296 
L 499.539472 -83.858984 
L 503.407625 -83.878818 
L 503.407625 -102.730619 
L 503.407625 -102.730619 
L 499.539472 -102.654869 
L 495.67132 -102.578249 
L 491.803167 -102.508108 
L 487.935015 -102.452824 
L 484.066862 -102.424275 
L 480.19871 -102.480392 
L 476.330557 -102.539873 
L 472.462405 -102.68866 
L 468.594252 -102.908309 
L 464.7261 -103.139453 
L 460.857947 -103.389577 
L 456.989794 -103.675177 
L 453.121642 -103.985398 
L 449.253489 -104.302263 
L 445.385337 -104.658755 
L 441.517184 -104.947915 
L 437.649032 -105.224091 
L 433.780879 -105.36291 
L 429.912727 -105.496907 
L 426.044574 -105.354441 
L 422.176422 -104.982657 
L 418.308269 -104.530496 
L 414.440117 -103.936313 
L 410.571964 -103.432524 
L 406.703811 -102.525264 
L 402.835659 -101.402974 
L 398.967506 -100.318017 
L 395.099354 -99.333496 
L 391.231201 -98.322941 
L 387.363049 -97.464898 
L 383.494896 -96.690234 
L 379.626744 -96.154599 
L 375.758591 -96.516545 
L 371.890439 -96.963411 
L 368.022286 -97.84046 
L 364.154133 -99.267468 
L 360.285981 -101.170365 
L 356.417828 -103.556828 
L 352.549676 -106.31902 
L 348.681523 -109.34156 
L 344.813371 -112.453265 
L 340.945218 -115.226153 
L 337.077066 -118.338062 
L 333.208913 -121.176587 
L 329.340761 -123.013364 
L 325.472608 -124.746638 
L 321.604456 -124.498187 
L 317.736303 -122.280463 
L 313.86815 -119.836954 
L 309.999998 -116.219575 
L 306.131845 -110.744402 
L 302.263693 -104.590126 
L 298.39554 -97.727507 
L 294.527388 -90.387794 
L 290.659235 -83.247304 
L 286.791083 -76.61361 
L 282.92293 -70.367918 
L 279.054778 -65.063138 
L 275.186625 -60.891224 
z
" style="stroke: #0000ff; stroke-opacity: 0.15"/>
    </defs>
    <g clip-path="url(#p869c2b589e)">
     <use xlink:href="#m977dbeb3af" x="0" y="351.99625" style="fill: #0000ff; fill-opacity: 0.15; stroke: #0000ff; stroke-opacity: 0.15"/>
    </g>
   </g>
   <g id="matplotlib.axis_1">
    <g id="xtick_1">
     <g id="line2d_1">
      <path d="M 46.965625 314.44 
L 46.965625 7.2 
" clip-path="url(#p869c2b589e)" style="fill: none; stroke: #b0b0b0; stroke-opacity: 0.3; stroke-width: 0.8; stroke-linecap: square"/>
     </g>
     <g id="line2d_2">
      <defs>
       <path id="m6e6bc89ab8" d="M 0 0 
L 0 3.5 
" style="stroke: #000000; stroke-width: 0.8"/>
      </defs>
      <g>
       <use xlink:href="#m6e6bc89ab8" x="46.965625" y="314.44" style="stroke: #000000; stroke-width: 0.8"/>
      </g>
     </g>
     <g id="text_1">
      <!-- 0 -->
      <g transform="translate(43.784375 329.038437) scale(0.1 -0.1)">
       <defs>
        <path id="DejaVuSans-30" d="M 2034 4250 
Q 1547 4250 1301 3770 
Q 1056 3291 1056 2328 
Q 1056 1369 1301 889 
Q 1547 409 2034 409 
Q 2525 409 2770 889 
Q 3016 1369 3016 2328 
Q 3016 3291 2770 3770 
Q 2525 4250 2034 4250 
z
M 2034 4750 
Q 2819 4750 3233 4129 
Q 3647 3509 3647 2328 
Q 3647 1150 3233 529 
Q 2819 -91 2034 -91 
Q 1250 -91 836 529 
Q 422 1150 422 2328 
Q 422 3509 836 4129 
Q 1250 4750 2034 4750 
z
" transform="scale(0.015625)"/>
       </defs>
       <use xlink:href="#DejaVuSans-30"/>
      </g>
     </g>
    </g>
    <g id="xtick_2">
     <g id="line2d_3">
      <path d="M 104.020875 314.44 
L 104.020875 7.2 
" clip-path="url(#p869c2b589e)" style="fill: none; stroke: #b0b0b0; stroke-opacity: 0.3; stroke-width: 0.8; stroke-linecap: square"/>
     </g>
     <g id="line2d_4">
      <g>
       <use xlink:href="#m6e6bc89ab8" x="104.020875" y="314.44" style="stroke: #000000; stroke-width: 0.8"/>
      </g>
     </g>
     <g id="text_2">
      <!-- 5 -->
      <g transform="translate(100.839625 329.038437) scale(0.1 -0.1)">
       <defs>
        <path id="DejaVuSans-35" d="M 691 4666 
L 3169 4666 
L 3169 4134 
L 1269 4134 
L 1269 2991 
Q 1406 3038 1543 3061 
Q 1681 3084 1819 3084 
Q 2600 3084 3056 2656 
Q 3513 2228 3513 1497 
Q 3513 744 3044 326 
Q 2575 -91 1722 -91 
Q 1428 -91 1123 -41 
Q 819 9 494 109 
L 494 744 
Q 775 591 1075 516 
Q 1375 441 1709 441 
Q 2250 441 2565 725 
Q 2881 1009 2881 1497 
Q 2881 1984 2565 2268 
Q 2250 2553 1709 2553 
Q 1456 2553 1204 2497 
Q 953 2441 691 2322 
L 691 4666 
z
" transform="scale(0.015625)"/>
       </defs>
       <use xlink:href="#DejaVuSans-35"/>
      </g>
     </g>
    </g>
    <g id="xtick_3">
     <g id="line2d_5">
      <path d="M 161.076125 314.44 
L 161.076125 7.2 
" clip-path="url(#p869c2b589e)" style="fill: none; stroke: #b0b0b0; stroke-opacity: 0.3; stroke-width: 0.8; stroke-linecap: square"/>
     </g>
     <g id="line2d_6">
      <g>
       <use xlink:href="#m6e6bc89ab8" x="161.076125" y="314.44" style="stroke: #000000; stroke-width: 0.8"/>
      </g>
     </g>
     <g id="text_3">
      <!-- 10 -->
      <g transform="translate(154.713625 329.038437) scale(0.1 -0.1)">
       <defs>
        <path id="DejaVuSans-31" d="M 794 531 
L 1825 531 
L 1825 4091 
L 703 3866 
L 703 4441 
L 1819 4666 
L 2450 4666 
L 2450 531 
L 3481 531 
L 3481 0 
L 794 0 
L 794 531 
z
" transform="scale(0.015625)"/>
       </defs>
       <use xlink:href="#DejaVuSans-31"/>
       <use xlink:href="#DejaVuSans-30" transform="translate(63.623047 0)"/>
      </g>
     </g>
    </g>
    <g id="xtick_4">
     <g id="line2d_7">
      <path d="M 218.131375 314.44 
L 218.131375 7.2 
" clip-path="url(#p869c2b589e)" style="fill: none; stroke: #b0b0b0; stroke-opacity: 0.3; stroke-width: 0.8; stroke-linecap: square"/>
     </g>
     <g id="line2d_8">
      <g>
       <use xlink:href="#m6e6bc89ab8" x="218.131375" y="314.44" style="stroke: #000000; stroke-width: 0.8"/>
      </g>
     </g>
     <g id="text_4">
      <!-- 15 -->
      <g transform="translate(211.768875 329.038437) scale(0.1 -0.1)">
       <use xlink:href="#DejaVuSans-31"/>
       <use xlink:href="#DejaVuSans-35" transform="translate(63.623047 0)"/>
      </g>
     </g>
    </g>
    <g id="xtick_5">
     <g id="line2d_9">
      <path d="M 275.186625 314.44 
L 275.186625 7.2 
" clip-path="url(#p869c2b589e)" style="fill: none; stroke: #b0b0b0; stroke-opacity: 0.3; stroke-width: 0.8; stroke-linecap: square"/>
     </g>
     <g id="line2d_10">
      <g>
       <use xlink:href="#m6e6bc89ab8" x="275.186625" y="314.44" style="stroke: #000000; stroke-width: 0.8"/>
      </g>
     </g>
     <g id="text_5">
      <!-- 20 -->
      <g transform="translate(268.824125 329.038437) scale(0.1 -0.1)">
       <defs>
        <path id="DejaVuSans-32" d="M 1228 531 
L 3431 531 
L 3431 0 
L 469 0 
L 469 531 
Q 828 903 1448 1529 
Q 2069 2156 2228 2338 
Q 2531 2678 2651 2914 
Q 2772 3150 2772 3378 
Q 2772 3750 2511 3984 
Q 2250 4219 1831 4219 
Q 1534 4219 1204 4116 
Q 875 4013 500 3803 
L 500 4441 
Q 881 4594 1212 4672 
Q 1544 4750 1819 4750 
Q 2544 4750 2975 4387 
Q 3406 4025 3406 3419 
Q 3406 3131 3298 2873 
Q 3191 2616 2906 2266 
Q 2828 2175 2409 1742 
Q 1991 1309 1228 531 
z
" transform="scale(0.015625)"/>
       </defs>
       <use xlink:href="#DejaVuSans-32"/>
       <use xlink:href="#DejaVuSans-30" transform="translate(63.623047 0)"/>
      </g>
     </g>
    </g>
    <g id="xtick_6">
     <g id="line2d_11">
      <path d="M 332.241875 314.44 
L 332.241875 7.2 
" clip-path="url(#p869c2b589e)" style="fill: none; stroke: #b0b0b0; stroke-opacity: 0.3; stroke-width: 0.8; stroke-linecap: square"/>
     </g>
     <g id="line2d_12">
      <g>
       <use xlink:href="#m6e6bc89ab8" x="332.241875" y="314.44" style="stroke: #000000; stroke-width: 0.8"/>
      </g>
     </g>
     <g id="text_6">
      <!-- 25 -->
      <g transform="translate(325.879375 329.038437) scale(0.1 -0.1)">
       <use xlink:href="#DejaVuSans-32"/>
       <use xlink:href="#DejaVuSans-35" transform="translate(63.623047 0)"/>
      </g>
     </g>
    </g>
    <g id="xtick_7">
     <g id="line2d_13">
      <path d="M 389.297125 314.44 
L 389.297125 7.2 
" clip-path="url(#p869c2b589e)" style="fill: none; stroke: #b0b0b0; stroke-opacity: 0.3; stroke-width: 0.8; stroke-linecap: square"/>
     </g>
     <g id="line2d_14">
      <g>
       <use xlink:href="#m6e6bc89ab8" x="389.297125" y="314.44" style="stroke: #000000; stroke-width: 0.8"/>
      </g>
     </g>
     <g id="text_7">
      <!-- 30 -->
      <g transform="translate(382.934625 329.038437) scale(0.1 -0.1)">
       <defs>
        <path id="DejaVuSans-33" d="M 2597 2516 
Q 3050 2419 3304 2112 
Q 3559 1806 3559 1356 
Q 3559 666 3084 287 
Q 2609 -91 1734 -91 
Q 1441 -91 1130 -33 
Q 819 25 488 141 
L 488 750 
Q 750 597 1062 519 
Q 1375 441 1716 441 
Q 2309 441 2620 675 
Q 2931 909 2931 1356 
Q 2931 1769 2642 2001 
Q 2353 2234 1838 2234 
L 1294 2234 
L 1294 2753 
L 1863 2753 
Q 2328 2753 2575 2939 
Q 2822 3125 2822 3475 
Q 2822 3834 2567 4026 
Q 2313 4219 1838 4219 
Q 1578 4219 1281 4162 
Q 984 4106 628 3988 
L 628 4550 
Q 988 4650 1302 4700 
Q 1616 4750 1894 4750 
Q 2613 4750 3031 4423 
Q 3450 4097 3450 3541 
Q 3450 3153 3228 2886 
Q 3006 2619 2597 2516 
z
" transform="scale(0.015625)"/>
       </defs>
       <use xlink:href="#DejaVuSans-33"/>
       <use xlink:href="#DejaVuSans-30" transform="translate(63.623047 0)"/>
      </g>
     </g>
    </g>
    <g id="xtick_8">
     <g id="line2d_15">
      <path d="M 446.352375 314.44 
L 446.352375 7.2 
" clip-path="url(#p869c2b589e)" style="fill: none; stroke: #b0b0b0; stroke-opacity: 0.3; stroke-width: 0.8; stroke-linecap: square"/>
     </g>
     <g id="line2d_16">
      <g>
       <use xlink:href="#m6e6bc89ab8" x="446.352375" y="314.44" style="stroke: #000000; stroke-width: 0.8"/>
      </g>
     </g>
     <g id="text_8">
      <!-- 35 -->
      <g transform="translate(439.989875 329.038437) scale(0.1 -0.1)">
       <use xlink:href="#DejaVuSans-33"/>
       <use xlink:href="#DejaVuSans-35" transform="translate(63.623047 0)"/>
      </g>
     </g>
    </g>
    <g id="xtick_9">
     <g id="line2d_17">
      <path d="M 503.407625 314.44 
L 503.407625 7.2 
" clip-path="url(#p869c2b589e)" style="fill: none; stroke: #b0b0b0; stroke-opacity: 0.3; stroke-width: 0.8; stroke-linecap: square"/>
     </g>
     <g id="line2d_18">
      <g>
       <use xlink:href="#m6e6bc89ab8" x="503.407625" y="314.44" style="stroke: #000000; stroke-width: 0.8"/>
      </g>
     </g>
     <g id="text_9">
      <!-- 40 -->
      <g transform="translate(497.045125 329.038437) scale(0.1 -0.1)">
       <defs>
        <path id="DejaVuSans-34" d="M 2419 4116 
L 825 1625 
L 2419 1625 
L 2419 4116 
z
M 2253 4666 
L 3047 4666 
L 3047 1625 
L 3713 1625 
L 3713 1100 
L 3047 1100 
L 3047 0 
L 2419 0 
L 2419 1100 
L 313 1100 
L 313 1709 
L 2253 4666 
z
" transform="scale(0.015625)"/>
       </defs>
       <use xlink:href="#DejaVuSans-34"/>
       <use xlink:href="#DejaVuSans-30" transform="translate(63.623047 0)"/>
      </g>
     </g>
    </g>
    <g id="text_10">
     <!-- Time (years) -->
     <g transform="translate(243.70225 342.716562) scale(0.1 -0.1)">
      <defs>
       <path id="DejaVuSans-54" d="M -19 4666 
L 3928 4666 
L 3928 4134 
L 2272 4134 
L 2272 0 
L 1638 0 
L 1638 4134 
L -19 4134 
L -19 4666 
z
" transform="scale(0.015625)"/>
       <path id="DejaVuSans-69" d="M 603 3500 
L 1178 3500 
L 1178 0 
L 603 0 
L 603 3500 
z
M 603 4863 
L 1178 4863 
L 1178 4134 
L 603 4134 
L 603 4863 
z
" transform="scale(0.015625)"/>
       <path id="DejaVuSans-6d" d="M 3328 2828 
Q 3544 3216 3844 3400 
Q 4144 3584 4550 3584 
Q 5097 3584 5394 3201 
Q 5691 2819 5691 2113 
L 5691 0 
L 5113 0 
L 5113 2094 
Q 5113 2597 4934 2840 
Q 4756 3084 4391 3084 
Q 3944 3084 3684 2787 
Q 3425 2491 3425 1978 
L 3425 0 
L 2847 0 
L 2847 2094 
Q 2847 2600 2669 2842 
Q 2491 3084 2119 3084 
Q 1678 3084 1418 2786 
Q 1159 2488 1159 1978 
L 1159 0 
L 581 0 
L 581 3500 
L 1159 3500 
L 1159 2956 
Q 1356 3278 1631 3431 
Q 1906 3584 2284 3584 
Q 2666 3584 2933 3390 
Q 3200 3197 3328 2828 
z
" transform="scale(0.015625)"/>
       <path id="DejaVuSans-65" d="M 3597 1894 
L 3597 1613 
L 953 1613 
Q 991 1019 1311 708 
Q 1631 397 2203 397 
Q 2534 397 2845 478 
Q 3156 559 3463 722 
L 3463 178 
Q 3153 47 2828 -22 
Q 2503 -91 2169 -91 
Q 1331 -91 842 396 
Q 353 884 353 1716 
Q 353 2575 817 3079 
Q 1281 3584 2069 3584 
Q 2775 3584 3186 3129 
Q 3597 2675 3597 1894 
z
M 3022 2063 
Q 3016 2534 2758 2815 
Q 2500 3097 2075 3097 
Q 1594 3097 1305 2825 
Q 1016 2553 972 2059 
L 3022 2063 
z
" transform="scale(0.015625)"/>
       <path id="DejaVuSans-20" transform="scale(0.015625)"/>
       <path id="DejaVuSans-28" d="M 1984 4856 
Q 1566 4138 1362 3434 
Q 1159 2731 1159 2009 
Q 1159 1288 1364 580 
Q 1569 -128 1984 -844 
L 1484 -844 
Q 1016 -109 783 600 
Q 550 1309 550 2009 
Q 550 2706 781 3412 
Q 1013 4119 1484 4856 
L 1984 4856 
z
" transform="scale(0.015625)"/>
       <path id="DejaVuSans-79" d="M 2059 -325 
Q 1816 -950 1584 -1140 
Q 1353 -1331 966 -1331 
L 506 -1331 
L 506 -850 
L 844 -850 
Q 1081 -850 1212 -737 
Q 1344 -625 1503 -206 
L 1606 56 
L 191 3500 
L 800 3500 
L 1894 763 
L 2988 3500 
L 3597 3500 
L 2059 -325 
z
" transform="scale(0.015625)"/>
       <path id="DejaVuSans-61" d="M 2194 1759 
Q 1497 1759 1228 1600 
Q 959 1441 959 1056 
Q 959 750 1161 570 
Q 1363 391 1709 391 
Q 2188 391 2477 730 
Q 2766 1069 2766 1631 
L 2766 1759 
L 2194 1759 
z
M 3341 1997 
L 3341 0 
L 2766 0 
L 2766 531 
Q 2569 213 2275 61 
Q 1981 -91 1556 -91 
Q 1019 -91 701 211 
Q 384 513 384 1019 
Q 384 1609 779 1909 
Q 1175 2209 1959 2209 
L 2766 2209 
L 2766 2266 
Q 2766 2663 2505 2880 
Q 2244 3097 1772 3097 
Q 1472 3097 1187 3025 
Q 903 2953 641 2809 
L 641 3341 
Q 956 3463 1253 3523 
Q 1550 3584 1831 3584 
Q 2591 3584 2966 3190 
Q 3341 2797 3341 1997 
z
" transform="scale(0.015625)"/>
       <path id="DejaVuSans-72" d="M 2631 2963 
Q 2534 3019 2420 3045 
Q 2306 3072 2169 3072 
Q 1681 3072 1420 2755 
Q 1159 2438 1159 1844 
L 1159 0 
L 581 0 
L 581 3500 
L 1159 3500 
L 1159 2956 
Q 1341 3275 1631 3429 
Q 1922 3584 2338 3584 
Q 2397 3584 2469 3576 
Q 2541 3569 2628 3553 
L 2631 2963 
z
" transform="scale(0.015625)"/>
       <path id="DejaVuSans-73" d="M 2834 3397 
L 2834 2853 
Q 2591 2978 2328 3040 
Q 2066 3103 1784 3103 
Q 1356 3103 1142 2972 
Q 928 2841 928 2578 
Q 928 2378 1081 2264 
Q 1234 2150 1697 2047 
L 1894 2003 
Q 2506 1872 2764 1633 
Q 3022 1394 3022 966 
Q 3022 478 2636 193 
Q 2250 -91 1575 -91 
Q 1294 -91 989 -36 
Q 684 19 347 128 
L 347 722 
Q 666 556 975 473 
Q 1284 391 1588 391 
Q 1994 391 2212 530 
Q 2431 669 2431 922 
Q 2431 1156 2273 1281 
Q 2116 1406 1581 1522 
L 1381 1569 
Q 847 1681 609 1914 
Q 372 2147 372 2553 
Q 372 3047 722 3315 
Q 1072 3584 1716 3584 
Q 2034 3584 2315 3537 
Q 2597 3491 2834 3397 
z
" transform="scale(0.015625)"/>
       <path id="DejaVuSans-29" d="M 513 4856 
L 1013 4856 
Q 1481 4119 1714 3412 
Q 1947 2706 1947 2009 
Q 1947 1309 1714 600 
Q 1481 -109 1013 -844 
L 513 -844 
Q 928 -128 1133 580 
Q 1338 1288 1338 2009 
Q 1338 2731 1133 3434 
Q 928 4138 513 4856 
z
" transform="scale(0.015625)"/>
      </defs>
      <use xlink:href="#DejaVuSans-54"/>
      <use xlink:href="#DejaVuSans-69" transform="translate(57.958984 0)"/>
      <use xlink:href="#DejaVuSans-6d" transform="translate(85.742188 0)"/>
      <use xlink:href="#DejaVuSans-65" transform="translate(183.154297 0)"/>
      <use xlink:href="#DejaVuSans-20" transform="translate(244.677734 0)"/>
      <use xlink:href="#DejaVuSans-28" transform="translate(276.464844 0)"/>
      <use xlink:href="#DejaVuSans-79" transform="translate(315.478516 0)"/>
      <use xlink:href="#DejaVuSans-65" transform="translate(374.658203 0)"/>
      <use xlink:href="#DejaVuSans-61" transform="translate(436.181641 0)"/>
      <use xlink:href="#DejaVuSans-72" transform="translate(497.460938 0)"/>
      <use xlink:href="#DejaVuSans-73" transform="translate(538.574219 0)"/>
      <use xlink:href="#DejaVuSans-29" transform="translate(590.673828 0)"/>
     </g>
    </g>
   </g>
   <g id="matplotlib.axis_2">
    <g id="ytick_1">
     <g id="line2d_19">
      <path d="M 46.965625 314.44 
L 503.407625 314.44 
" clip-path="url(#p869c2b589e)" style="fill: none; stroke: #b0b0b0; stroke-opacity: 0.3; stroke-width: 0.8; stroke-linecap: square"/>
     </g>
     <g id="line2d_20">
      <defs>
       <path id="me749bf9eb8" d="M 0 0 
L -3.5 0 
" style="stroke: #000000; stroke-width: 0.8"/>
      </defs>
      <g>
       <use xlink:href="#me749bf9eb8" x="46.965625" y="314.44" style="stroke: #000000; stroke-width: 0.8"/>
      </g>
     </g>
     <g id="text_11">
      <!-- 0 -->
      <g transform="translate(33.603125 318.239219) scale(0.1 -0.1)">
       <use xlink:href="#DejaVuSans-30"/>
      </g>
     </g>
    </g>
    <g id="ytick_2">
     <g id="line2d_21">
      <path d="M 46.965625 258.578182 
L 503.407625 258.578182 
" clip-path="url(#p869c2b589e)" style="fill: none; stroke: #b0b0b0; stroke-opacity: 0.3; stroke-width: 0.8; stroke-linecap: square"/>
     </g>
     <g id="line2d_22">
      <g>
       <use xlink:href="#me749bf9eb8" x="46.965625" y="258.578182" style="stroke: #000000; stroke-width: 0.8"/>
      </g>
     </g>
     <g id="text_12">
      <!-- 20 -->
      <g transform="translate(27.240625 262.377401) scale(0.1 -0.1)">
       <use xlink:href="#DejaVuSans-32"/>
       <use xlink:href="#DejaVuSans-30" transform="translate(63.623047 0)"/>
      </g>
     </g>
    </g>
    <g id="ytick_3">
     <g id="line2d_23">
      <path d="M 46.965625 202.716364 
L 503.407625 202.716364 
" clip-path="url(#p869c2b589e)" style="fill: none; stroke: #b0b0b0; stroke-opacity: 0.3; stroke-width: 0.8; stroke-linecap: square"/>
     </g>
     <g id="line2d_24">
      <g>
       <use xlink:href="#me749bf9eb8" x="46.965625" y="202.716364" style="stroke: #000000; stroke-width: 0.8"/>
      </g>
     </g>
     <g id="text_13">
      <!-- 40 -->
      <g transform="translate(27.240625 206.515582) scale(0.1 -0.1)">
       <use xlink:href="#DejaVuSans-34"/>
       <use xlink:href="#DejaVuSans-30" transform="translate(63.623047 0)"/>
      </g>
     </g>
    </g>
    <g id="ytick_4">
     <g id="line2d_25">
      <path d="M 46.965625 146.854545 
L 503.407625 146.854545 
" clip-path="url(#p869c2b589e)" style="fill: none; stroke: #b0b0b0; stroke-opacity: 0.3; stroke-width: 0.8; stroke-linecap: square"/>
     </g>
     <g id="line2d_26">
      <g>
       <use xlink:href="#me749bf9eb8" x="46.965625" y="146.854545" style="stroke: #000000; stroke-width: 0.8"/>
      </g>
     </g>
     <g id="text_14">
      <!-- 60 -->
      <g transform="translate(27.240625 150.653764) scale(0.1 -0.1)">
       <defs>
        <path id="DejaVuSans-36" d="M 2113 2584 
Q 1688 2584 1439 2293 
Q 1191 2003 1191 1497 
Q 1191 994 1439 701 
Q 1688 409 2113 409 
Q 2538 409 2786 701 
Q 3034 994 3034 1497 
Q 3034 2003 2786 2293 
Q 2538 2584 2113 2584 
z
M 3366 4563 
L 3366 3988 
Q 3128 4100 2886 4159 
Q 2644 4219 2406 4219 
Q 1781 4219 1451 3797 
Q 1122 3375 1075 2522 
Q 1259 2794 1537 2939 
Q 1816 3084 2150 3084 
Q 2853 3084 3261 2657 
Q 3669 2231 3669 1497 
Q 3669 778 3244 343 
Q 2819 -91 2113 -91 
Q 1303 -91 875 529 
Q 447 1150 447 2328 
Q 447 3434 972 4092 
Q 1497 4750 2381 4750 
Q 2619 4750 2861 4703 
Q 3103 4656 3366 4563 
z
" transform="scale(0.015625)"/>
       </defs>
       <use xlink:href="#DejaVuSans-36"/>
       <use xlink:href="#DejaVuSans-30" transform="translate(63.623047 0)"/>
      </g>
     </g>
    </g>
    <g id="ytick_5">
     <g id="line2d_27">
      <path d="M 46.965625 90.992727 
L 503.407625 90.992727 
" clip-path="url(#p869c2b589e)" style="fill: none; stroke: #b0b0b0; stroke-opacity: 0.3; stroke-width: 0.8; stroke-linecap: square"/>
     </g>
     <g id="line2d_28">
      <g>
       <use xlink:href="#me749bf9eb8" x="46.965625" y="90.992727" style="stroke: #000000; stroke-width: 0.8"/>
      </g>
     </g>
     <g id="text_15">
      <!-- 80 -->
      <g transform="translate(27.240625 94.791946) scale(0.1 -0.1)">
       <defs>
        <path id="DejaVuSans-38" d="M 2034 2216 
Q 1584 2216 1326 1975 
Q 1069 1734 1069 1313 
Q 1069 891 1326 650 
Q 1584 409 2034 409 
Q 2484 409 2743 651 
Q 3003 894 3003 1313 
Q 3003 1734 2745 1975 
Q 2488 2216 2034 2216 
z
M 1403 2484 
Q 997 2584 770 2862 
Q 544 3141 544 3541 
Q 544 4100 942 4425 
Q 1341 4750 2034 4750 
Q 2731 4750 3128 4425 
Q 3525 4100 3525 3541 
Q 3525 3141 3298 2862 
Q 3072 2584 2669 2484 
Q 3125 2378 3379 2068 
Q 3634 1759 3634 1313 
Q 3634 634 3220 271 
Q 2806 -91 2034 -91 
Q 1263 -91 848 271 
Q 434 634 434 1313 
Q 434 1759 690 2068 
Q 947 2378 1403 2484 
z
M 1172 3481 
Q 1172 3119 1398 2916 
Q 1625 2713 2034 2713 
Q 2441 2713 2670 2916 
Q 2900 3119 2900 3481 
Q 2900 3844 2670 4047 
Q 2441 4250 2034 4250 
Q 1625 4250 1398 4047 
Q 1172 3844 1172 3481 
z
" transform="scale(0.015625)"/>
       </defs>
       <use xlink:href="#DejaVuSans-38"/>
       <use xlink:href="#DejaVuSans-30" transform="translate(63.623047 0)"/>
      </g>
     </g>
    </g>
    <g id="ytick_6">
     <g id="line2d_29">
      <path d="M 46.965625 35.130909 
L 503.407625 35.130909 
" clip-path="url(#p869c2b589e)" style="fill: none; stroke: #b0b0b0; stroke-opacity: 0.3; stroke-width: 0.8; stroke-linecap: square"/>
     </g>
     <g id="line2d_30">
      <g>
       <use xlink:href="#me749bf9eb8" x="46.965625" y="35.130909" style="stroke: #000000; stroke-width: 0.8"/>
      </g>
     </g>
     <g id="text_16">
      <!-- 100 -->
      <g transform="translate(20.878125 38.930128) scale(0.1 -0.1)">
       <use xlink:href="#DejaVuSans-31"/>
       <use xlink:href="#DejaVuSans-30" transform="translate(63.623047 0)"/>
       <use xlink:href="#DejaVuSans-30" transform="translate(127.246094 0)"/>
      </g>
     </g>
    </g>
    <g id="text_17">
     <!-- Population -->
     <g transform="translate(14.798437 187.086406) rotate(-90) scale(0.1 -0.1)">
      <defs>
       <path id="DejaVuSans-50" d="M 1259 4147 
L 1259 2394 
L 2053 2394 
Q 2494 2394 2734 2622 
Q 2975 2850 2975 3272 
Q 2975 3691 2734 3919 
Q 2494 4147 2053 4147 
L 1259 4147 
z
M 628 4666 
L 2053 4666 
Q 2838 4666 3239 4311 
Q 3641 3956 3641 3272 
Q 3641 2581 3239 2228 
Q 2838 1875 2053 1875 
L 1259 1875 
L 1259 0 
L 628 0 
L 628 4666 
z
" transform="scale(0.015625)"/>
       <path id="DejaVuSans-6f" d="M 1959 3097 
Q 1497 3097 1228 2736 
Q 959 2375 959 1747 
Q 959 1119 1226 758 
Q 1494 397 1959 397 
Q 2419 397 2687 759 
Q 2956 1122 2956 1747 
Q 2956 2369 2687 2733 
Q 2419 3097 1959 3097 
z
M 1959 3584 
Q 2709 3584 3137 3096 
Q 3566 2609 3566 1747 
Q 3566 888 3137 398 
Q 2709 -91 1959 -91 
Q 1206 -91 779 398 
Q 353 888 353 1747 
Q 353 2609 779 3096 
Q 1206 3584 1959 3584 
z
" transform="scale(0.015625)"/>
       <path id="DejaVuSans-70" d="M 1159 525 
L 1159 -1331 
L 581 -1331 
L 581 3500 
L 1159 3500 
L 1159 2969 
Q 1341 3281 1617 3432 
Q 1894 3584 2278 3584 
Q 2916 3584 3314 3078 
Q 3713 2572 3713 1747 
Q 3713 922 3314 415 
Q 2916 -91 2278 -91 
Q 1894 -91 1617 61 
Q 1341 213 1159 525 
z
M 3116 1747 
Q 3116 2381 2855 2742 
Q 2594 3103 2138 3103 
Q 1681 3103 1420 2742 
Q 1159 2381 1159 1747 
Q 1159 1113 1420 752 
Q 1681 391 2138 391 
Q 2594 391 2855 752 
Q 3116 1113 3116 1747 
z
" transform="scale(0.015625)"/>
       <path id="DejaVuSans-75" d="M 544 1381 
L 544 3500 
L 1119 3500 
L 1119 1403 
Q 1119 906 1312 657 
Q 1506 409 1894 409 
Q 2359 409 2629 706 
Q 2900 1003 2900 1516 
L 2900 3500 
L 3475 3500 
L 3475 0 
L 2900 0 
L 2900 538 
Q 2691 219 2414 64 
Q 2138 -91 1772 -91 
Q 1169 -91 856 284 
Q 544 659 544 1381 
z
M 1991 3584 
L 1991 3584 
z
" transform="scale(0.015625)"/>
       <path id="DejaVuSans-6c" d="M 603 4863 
L 1178 4863 
L 1178 0 
L 603 0 
L 603 4863 
z
" transform="scale(0.015625)"/>
       <path id="DejaVuSans-74" d="M 1172 4494 
L 1172 3500 
L 2356 3500 
L 2356 3053 
L 1172 3053 
L 1172 1153 
Q 1172 725 1289 603 
Q 1406 481 1766 481 
L 2356 481 
L 2356 0 
L 1766 0 
Q 1100 0 847 248 
Q 594 497 594 1153 
L 594 3053 
L 172 3053 
L 172 3500 
L 594 3500 
L 594 4494 
L 1172 4494 
z
" transform="scale(0.015625)"/>
       <path id="DejaVuSans-6e" d="M 3513 2113 
L 3513 0 
L 2938 0 
L 2938 2094 
Q 2938 2591 2744 2837 
Q 2550 3084 2163 3084 
Q 1697 3084 1428 2787 
Q 1159 2491 1159 1978 
L 1159 0 
L 581 0 
L 581 3500 
L 1159 3500 
L 1159 2956 
Q 1366 3272 1645 3428 
Q 1925 3584 2291 3584 
Q 2894 3584 3203 3211 
Q 3513 2838 3513 2113 
z
" transform="scale(0.015625)"/>
      </defs>
      <use xlink:href="#DejaVuSans-50"/>
      <use xlink:href="#DejaVuSans-6f" transform="translate(56.677734 0)"/>
      <use xlink:href="#DejaVuSans-70" transform="translate(117.859375 0)"/>
      <use xlink:href="#DejaVuSans-75" transform="translate(181.335938 0)"/>
      <use xlink:href="#DejaVuSans-6c" transform="translate(244.714844 0)"/>
      <use xlink:href="#DejaVuSans-61" transform="translate(272.498047 0)"/>
      <use xlink:href="#DejaVuSans-74" transform="translate(333.777344 0)"/>
      <use xlink:href="#DejaVuSans-69" transform="translate(372.986328 0)"/>
      <use xlink:href="#DejaVuSans-6f" transform="translate(400.769531 0)"/>
      <use xlink:href="#DejaVuSans-6e" transform="translate(461.951172 0)"/>
     </g>
    </g>
   </g>
   <g id="line2d_31">
    <path d="M 46.965625 218.01608 
L 50.833778 204.672264 
L 54.70193 189.772784 
L 58.570083 173.558126 
L 62.438235 156.677226 
L 66.306388 140.053369 
L 70.17454 125.99741 
L 74.042693 117.921175 
L 77.910845 119.003649 
L 81.778998 131.74705 
L 85.64715 155.385825 
L 89.515303 184.116573 
L 93.383456 211.64035 
L 97.251608 234.356851 
L 101.119761 251.154376 
L 104.987913 262.570824 
L 108.856066 270.000406 
L 112.724218 274.661607 
L 116.592371 277.329759 
L 120.460523 278.490685 
L 124.328676 278.458708 
L 128.196828 277.403018 
L 132.064981 275.415676 
L 135.933133 272.524798 
L 139.801286 268.7115 
L 143.669439 263.925283 
L 147.537591 258.088208 
L 151.405744 251.09404 
L 155.273896 242.814828 
L 159.142049 233.125255 
L 163.010201 221.927078 
L 166.878354 209.171394 
L 170.746506 194.876189 
L 174.614659 179.179885 
L 178.482811 162.482738 
L 182.350964 145.859716 
L 186.219117 131.265934 
L 190.087269 121.335062 
L 193.955422 119.205416 
L 197.823574 127.786283 
L 201.691727 147.611596 
L 205.559879 174.913943 
L 209.428032 203.458262 
L 213.296184 228.298244 
L 217.164337 246.995504 
L 221.032489 259.839884 
L 224.900642 268.298297 
L 228.768794 273.687368 
L 232.636947 276.864106 
L 236.5051 278.412571 
L 240.373252 278.701354 
L 244.241405 277.923411 
L 248.109557 276.18985 
L 251.97771 273.548423 
L 255.845862 269.992502 
L 259.714015 265.478933 
L 263.582167 259.932879 
L 267.45032 253.254784 
L 271.318472 245.331172 
L 275.186625 236.04161 
" clip-path="url(#p869c2b589e)" style="fill: none; stroke-dasharray: 7.4,3.2; stroke-dashoffset: 0; stroke: #ff0000; stroke-opacity: 0.8; stroke-width: 2"/>
   </g>
   <g id="line2d_32">
    <path d="M 46.965625 298.132572 
L 50.833778 297.706817 
L 54.70193 296.564998 
L 58.570083 294.489381 
L 62.438235 291.085254 
L 66.306388 285.896442 
L 70.17454 277.83906 
L 74.042693 265.632755 
L 77.910845 248.828257 
L 81.778998 228.084665 
L 85.64715 206.599485 
L 89.515303 190.099146 
L 93.383456 182.542677 
L 97.251608 184.013958 
L 101.119761 192.327741 
L 104.987913 204.699382 
L 108.856066 218.447374 
L 112.724218 231.843552 
L 116.592371 244.06462 
L 120.460523 254.78696 
L 124.328676 263.937681 
L 128.196828 271.611717 
L 132.064981 277.959071 
L 135.933133 283.146388 
L 139.801286 287.337027 
L 143.669439 290.673424 
L 147.537591 293.274806 
L 151.405744 295.238933 
L 155.273896 296.639304 
L 159.142049 297.515774 
L 163.010201 297.866045 
L 166.878354 297.63891 
L 170.746506 296.732149 
L 174.614659 294.981121 
L 178.482811 292.102865 
L 182.350964 287.505063 
L 186.219117 280.30187 
L 190.087269 269.571405 
L 193.955422 254.60348 
L 197.823574 235.483828 
L 201.691727 214.404165 
L 205.559879 196.051015 
L 209.428032 185.075935 
L 213.296184 183.254411 
L 217.164337 189.530202 
L 221.032489 200.942809 
L 224.900642 214.45306 
L 228.768794 228.034326 
L 232.636947 240.655713 
L 236.5051 251.843469 
L 240.373252 261.451782 
L 244.241405 269.548486 
L 248.109557 276.274072 
L 251.97771 281.788969 
L 255.845862 286.25851 
L 259.714015 289.83291 
L 263.582167 292.641465 
L 267.45032 294.789111 
L 271.318472 296.351655 
L 275.186625 297.372444 
" clip-path="url(#p869c2b589e)" style="fill: none; stroke-dasharray: 7.4,3.2; stroke-dashoffset: 0; stroke: #0000ff; stroke-opacity: 0.8; stroke-width: 2"/>
   </g>
   <g id="line2d_33">
    <path d="M 275.186625 236.04161 
L 279.054778 225.89895 
L 282.92293 216.096004 
L 286.791083 207.176265 
L 290.659235 199.700066 
L 294.527388 194.161386 
L 298.39554 190.894191 
L 302.263693 189.996022 
L 306.131845 191.299836 
L 309.999998 194.409948 
L 313.86815 198.79012 
L 317.736303 203.870123 
L 321.604456 209.135375 
L 325.472608 214.179846 
L 329.340761 218.721512 
L 333.208913 222.591553 
L 337.077066 225.710997 
L 340.945218 228.0653 
L 344.813371 229.682631 
L 348.681523 230.617804 
L 352.549676 230.941594 
L 356.417828 230.734225 
L 360.285981 230.081598 
L 364.154133 229.07304 
L 368.022286 227.799597 
L 371.890439 226.352268 
L 375.758591 224.819791 
L 379.626744 223.285941 
L 383.494896 221.82644 
L 387.363049 220.505824 
L 391.231201 219.374653 
L 395.099354 218.467502 
L 398.967506 217.802063 
L 402.835659 217.379544 
L 406.703811 217.186329 
L 410.571964 217.1967 
L 414.440117 217.376244 
L 418.308269 217.685527 
L 422.176422 218.083621 
L 426.044574 218.53116 
L 429.912727 218.992735 
L 433.780879 219.438522 
L 437.649032 219.845187 
L 441.517184 220.196158 
L 445.385337 220.48138 
L 449.253489 220.696701 
L 453.121642 220.843015 
L 456.989794 220.925263 
L 460.857947 220.951377 
L 464.7261 220.931251 
L 468.594252 220.875763 
L 472.462405 220.795917 
L 476.330557 220.702113 
L 480.19871 220.603571 
L 484.066862 220.507934 
L 487.935015 220.421026 
L 491.803167 220.346781 
L 495.67132 220.287312 
L 499.539472 220.243096 
L 503.407625 220.213268 
" clip-path="url(#p869c2b589e)" style="fill: none; stroke: #ff0000; stroke-width: 3; stroke-linecap: square"/>
   </g>
   <g id="line2d_34">
    <path d="M 275.186625 297.372444 
L 279.054778 293.462288 
L 282.92293 289.05536 
L 286.791083 284.152137 
L 290.659235 278.789065 
L 294.527388 273.06029 
L 298.39554 267.139132 
L 302.263693 261.285353 
L 306.131845 255.824152 
L 309.999998 251.094674 
L 313.86815 247.383566 
L 317.736303 244.868994 
L 321.604456 243.594774 
L 325.472608 243.478586 
L 329.340761 244.344359 
L 333.208913 245.96374 
L 337.077066 248.094218 
L 340.945218 250.507308 
L 344.813371 253.005479 
L 348.681523 255.429593 
L 352.549676 257.659727 
L 356.417828 259.612118 
L 360.285981 261.23432 
L 364.154133 262.499939 
L 368.022286 263.403709 
L 371.890439 263.957215 
L 375.758591 264.185345 
L 379.626744 264.123334 
L 383.494896 263.814232 
L 387.363049 263.306595 
L 391.231201 262.652241 
L 395.099354 261.903956 
L 398.967506 261.113138 
L 402.835659 260.327459 
L 406.703811 259.588681 
L 410.571964 258.930837 
L 414.440117 258.378952 
L 418.308269 257.948441 
L 422.176422 257.645247 
L 426.044574 257.466656 
L 429.912727 257.402665 
L 433.780879 257.437723 
L 437.649032 257.552625 
L 441.517184 257.726376 
L 445.385337 257.937882 
L 449.253489 258.167345 
L 453.121642 258.39733 
L 456.989794 258.613477 
L 460.857947 258.804884 
L 464.7261 258.964199 
L 468.594252 259.087467 
L 472.462405 259.173796 
L 476.330557 259.224885 
L 480.19871 259.244464 
L 484.066862 259.237708 
L 487.935015 259.210638 
L 491.803167 259.169571 
L 495.67132 259.120633 
L 499.539472 259.069363 
L 503.407625 259.02037 
" clip-path="url(#p869c2b589e)" style="fill: none; stroke: #0000ff; stroke-width: 3; stroke-linecap: square"/>
   </g>
   <g id="line2d_35">
    <path d="M 275.186625 314.44 
L 275.186625 7.2 
" clip-path="url(#p869c2b589e)" style="fill: none; stroke-dasharray: 1.5,2.475; stroke-dashoffset: 0; stroke: #808080; stroke-opacity: 0.7; stroke-width: 1.5"/>
   </g>
   <g id="patch_3">
    <path d="M 46.965625 314.44 
L 46.965625 7.2 
" style="fill: none; stroke: #000000; stroke-width: 0.8; stroke-linejoin: miter; stroke-linecap: square"/>
   </g>
   <g id="patch_4">
    <path d="M 503.407625 314.44 
L 503.407625 7.2 
" style="fill: none; stroke: #000000; stroke-width: 0.8; stroke-linejoin: miter; stroke-linecap: square"/>
   </g>
   <g id="patch_5">
    <path d="M 46.965625 314.44 
L 503.407625 314.44 
" style="fill: none; stroke: #000000; stroke-width: 0.8; stroke-linejoin: miter; stroke-linecap: square"/>
   </g>
   <g id="patch_6">
    <path d="M 46.965625 7.2 
L 503.407625 7.2 
" style="fill: none; stroke: #000000; stroke-width: 0.8; stroke-linejoin: miter; stroke-linecap: square"/>
   </g>
   <g id="PathCollection_1">
    <defs>
     <path id="mb9e8dd0fbc" d="M 0 2.236068 
C 0.593012 2.236068 1.161816 2.000462 1.581139 1.581139 
C 2.000462 1.161816 2.236068 0.593012 2.236068 0 
C 2.236068 -0.593012 2.000462 -1.161816 1.581139 -1.581139 
C 1.161816 -2.000462 0.593012 -2.236068 0 -2.236068 
C -0.593012 -2.236068 -1.161816 -2.000462 -1.581139 -1.581139 
C -2.000462 -1.161816 -2.236068 -0.593012 -2.236068 0 
C -2.236068 0.593012 -2.000462 1.161816 -1.581139 1.581139 
C -1.161816 2.000462 -0.593012 2.236068 0 2.236068 
z
" style="stroke: #ff0000; stroke-opacity: 0.7"/>
    </defs>
    <g clip-path="url(#p869c2b589e)">
     <use xlink:href="#mb9e8dd0fbc" x="46.965625" y="230.647273" style="fill: #ff0000; fill-opacity: 0.7; stroke: #ff0000; stroke-opacity: 0.7"/>
     <use xlink:href="#mb9e8dd0fbc" x="58.376675" y="182.606109" style="fill: #ff0000; fill-opacity: 0.7; stroke: #ff0000; stroke-opacity: 0.7"/>
     <use xlink:href="#mb9e8dd0fbc" x="69.787725" y="118.365018" style="fill: #ff0000; fill-opacity: 0.7; stroke: #ff0000; stroke-opacity: 0.7"/>
     <use xlink:href="#mb9e8dd0fbc" x="81.198775" y="98.254764" style="fill: #ff0000; fill-opacity: 0.7; stroke: #ff0000; stroke-opacity: 0.7"/>
     <use xlink:href="#mb9e8dd0fbc" x="92.609825" y="213.0508" style="fill: #ff0000; fill-opacity: 0.7; stroke: #ff0000; stroke-opacity: 0.7"/>
     <use xlink:href="#mb9e8dd0fbc" x="104.020875" y="256.902327" style="fill: #ff0000; fill-opacity: 0.7; stroke: #ff0000; stroke-opacity: 0.7"/>
     <use xlink:href="#mb9e8dd0fbc" x="115.431925" y="263.885055" style="fill: #ff0000; fill-opacity: 0.7; stroke: #ff0000; stroke-opacity: 0.7"/>
     <use xlink:href="#mb9e8dd0fbc" x="126.842975" y="254.667855" style="fill: #ff0000; fill-opacity: 0.7; stroke: #ff0000; stroke-opacity: 0.7"/>
     <use xlink:href="#mb9e8dd0fbc" x="138.254025" y="252.992" style="fill: #ff0000; fill-opacity: 0.7; stroke: #ff0000; stroke-opacity: 0.7"/>
     <use xlink:href="#mb9e8dd0fbc" x="149.665075" y="243.495491" style="fill: #ff0000; fill-opacity: 0.7; stroke: #ff0000; stroke-opacity: 0.7"/>
     <use xlink:href="#mb9e8dd0fbc" x="161.076125" y="238.747236" style="fill: #ff0000; fill-opacity: 0.7; stroke: #ff0000; stroke-opacity: 0.7"/>
     <use xlink:href="#mb9e8dd0fbc" x="172.487175" y="201.878436" style="fill: #ff0000; fill-opacity: 0.7; stroke: #ff0000; stroke-opacity: 0.7"/>
     <use xlink:href="#mb9e8dd0fbc" x="183.898225" y="155.233818" style="fill: #ff0000; fill-opacity: 0.7; stroke: #ff0000; stroke-opacity: 0.7"/>
     <use xlink:href="#mb9e8dd0fbc" x="195.309275" y="100.489236" style="fill: #ff0000; fill-opacity: 0.7; stroke: #ff0000; stroke-opacity: 0.7"/>
     <use xlink:href="#mb9e8dd0fbc" x="206.720325" y="168.361345" style="fill: #ff0000; fill-opacity: 0.7; stroke: #ff0000; stroke-opacity: 0.7"/>
     <use xlink:href="#mb9e8dd0fbc" x="218.131375" y="259.974727" style="fill: #ff0000; fill-opacity: 0.7; stroke: #ff0000; stroke-opacity: 0.7"/>
     <use xlink:href="#mb9e8dd0fbc" x="229.542425" y="283.157382" style="fill: #ff0000; fill-opacity: 0.7; stroke: #ff0000; stroke-opacity: 0.7"/>
     <use xlink:href="#mb9e8dd0fbc" x="240.953475" y="293.212509" style="fill: #ff0000; fill-opacity: 0.7; stroke: #ff0000; stroke-opacity: 0.7"/>
     <use xlink:href="#mb9e8dd0fbc" x="252.364525" y="273.660873" style="fill: #ff0000; fill-opacity: 0.7; stroke: #ff0000; stroke-opacity: 0.7"/>
     <use xlink:href="#mb9e8dd0fbc" x="263.775575" y="269.191927" style="fill: #ff0000; fill-opacity: 0.7; stroke: #ff0000; stroke-opacity: 0.7"/>
     <use xlink:href="#mb9e8dd0fbc" x="275.186625" y="245.450655" style="fill: #ff0000; fill-opacity: 0.7; stroke: #ff0000; stroke-opacity: 0.7"/>
    </g>
   </g>
   <g id="PathCollection_2">
    <defs>
     <path id="m93022e6f74" d="M 0 2.236068 
C 0.593012 2.236068 1.161816 2.000462 1.581139 1.581139 
C 2.000462 1.161816 2.236068 0.593012 2.236068 0 
C 2.236068 -0.593012 2.000462 -1.161816 1.581139 -1.581139 
C 1.161816 -2.000462 0.593012 -2.236068 0 -2.236068 
C -0.593012 -2.236068 -1.161816 -2.000462 -1.581139 -1.581139 
C -2.000462 -1.161816 -2.236068 -0.593012 -2.236068 0 
C -2.236068 0.593012 -2.000462 1.161816 -1.581139 1.581139 
C -1.161816 2.000462 -0.593012 2.236068 0 2.236068 
z
" style="stroke: #0000ff; stroke-opacity: 0.7"/>
    </defs>
    <g clip-path="url(#p869c2b589e)">
     <use xlink:href="#m93022e6f74" x="46.965625" y="303.267636" style="fill: #0000ff; fill-opacity: 0.7; stroke: #0000ff; stroke-opacity: 0.7"/>
     <use xlink:href="#m93022e6f74" x="58.376675" y="297.402145" style="fill: #0000ff; fill-opacity: 0.7; stroke: #0000ff; stroke-opacity: 0.7"/>
     <use xlink:href="#m93022e6f74" x="69.787725" y="287.067709" style="fill: #0000ff; fill-opacity: 0.7; stroke: #0000ff; stroke-opacity: 0.7"/>
     <use xlink:href="#m93022e6f74" x="81.198775" y="216.1232" style="fill: #0000ff; fill-opacity: 0.7; stroke: #0000ff; stroke-opacity: 0.7"/>
     <use xlink:href="#m93022e6f74" x="92.609825" y="148.5304" style="fill: #0000ff; fill-opacity: 0.7; stroke: #0000ff; stroke-opacity: 0.7"/>
     <use xlink:href="#m93022e6f74" x="104.020875" y="197.968109" style="fill: #0000ff; fill-opacity: 0.7; stroke: #0000ff; stroke-opacity: 0.7"/>
     <use xlink:href="#m93022e6f74" x="115.431925" y="261.371273" style="fill: #0000ff; fill-opacity: 0.7; stroke: #0000ff; stroke-opacity: 0.7"/>
     <use xlink:href="#m93022e6f74" x="126.842975" y="278.129818" style="fill: #0000ff; fill-opacity: 0.7; stroke: #0000ff; stroke-opacity: 0.7"/>
     <use xlink:href="#m93022e6f74" x="138.254025" y="291.257345" style="fill: #0000ff; fill-opacity: 0.7; stroke: #0000ff; stroke-opacity: 0.7"/>
     <use xlink:href="#m93022e6f74" x="149.665075" y="289.022873" style="fill: #0000ff; fill-opacity: 0.7; stroke: #0000ff; stroke-opacity: 0.7"/>
     <use xlink:href="#m93022e6f74" x="161.076125" y="293.771127" style="fill: #0000ff; fill-opacity: 0.7; stroke: #0000ff; stroke-opacity: 0.7"/>
     <use xlink:href="#m93022e6f74" x="172.487175" y="292.095273" style="fill: #0000ff; fill-opacity: 0.7; stroke: #0000ff; stroke-opacity: 0.7"/>
     <use xlink:href="#m93022e6f74" x="183.898225" y="280.084982" style="fill: #0000ff; fill-opacity: 0.7; stroke: #0000ff; stroke-opacity: 0.7"/>
     <use xlink:href="#m93022e6f74" x="195.309275" y="259.974727" style="fill: #0000ff; fill-opacity: 0.7; stroke: #0000ff; stroke-opacity: 0.7"/>
     <use xlink:href="#m93022e6f74" x="206.720325" y="186.795745" style="fill: #0000ff; fill-opacity: 0.7; stroke: #0000ff; stroke-opacity: 0.7"/>
     <use xlink:href="#m93022e6f74" x="218.131375" y="171.713055" style="fill: #0000ff; fill-opacity: 0.7; stroke: #0000ff; stroke-opacity: 0.7"/>
     <use xlink:href="#m93022e6f74" x="229.542425" y="231.4852" style="fill: #0000ff; fill-opacity: 0.7; stroke: #0000ff; stroke-opacity: 0.7"/>
     <use xlink:href="#m93022e6f74" x="240.953475" y="270.309164" style="fill: #0000ff; fill-opacity: 0.7; stroke: #0000ff; stroke-opacity: 0.7"/>
     <use xlink:href="#m93022e6f74" x="252.364525" y="287.347018" style="fill: #0000ff; fill-opacity: 0.7; stroke: #0000ff; stroke-opacity: 0.7"/>
     <use xlink:href="#m93022e6f74" x="263.775575" y="286.229782" style="fill: #0000ff; fill-opacity: 0.7; stroke: #0000ff; stroke-opacity: 0.7"/>
     <use xlink:href="#m93022e6f74" x="275.186625" y="290.419418" style="fill: #0000ff; fill-opacity: 0.7; stroke: #0000ff; stroke-opacity: 0.7"/>
    </g>
   </g>
   <g id="legend_1">
    <g id="patch_7">
     <path d="M 408.1795 73.9125 
L 496.407625 73.9125 
Q 498.407625 73.9125 498.407625 71.9125 
L 498.407625 14.2 
Q 498.407625 12.2 496.407625 12.2 
L 408.1795 12.2 
Q 406.1795 12.2 406.1795 14.2 
L 406.1795 71.9125 
Q 406.1795 73.9125 408.1795 73.9125 
z
" style="fill: #ffffff; opacity: 0.8; stroke: #cccccc; stroke-linejoin: miter"/>
    </g>
    <g id="patch_8">
     <path d="M 410.1795 23.798437 
L 430.1795 23.798437 
L 430.1795 16.798437 
L 410.1795 16.798437 
z
" style="fill: #ff0000; fill-opacity: 0.3; stroke: #ff0000; stroke-opacity: 0.3; stroke-linejoin: miter"/>
    </g>
    <g id="text_18">
     <!-- Confidence -->
     <g transform="translate(438.1795 23.798437) scale(0.1 -0.1)">
      <defs>
       <path id="DejaVuSans-43" d="M 4122 4306 
L 4122 3641 
Q 3803 3938 3442 4084 
Q 3081 4231 2675 4231 
Q 1875 4231 1450 3742 
Q 1025 3253 1025 2328 
Q 1025 1406 1450 917 
Q 1875 428 2675 428 
Q 3081 428 3442 575 
Q 3803 722 4122 1019 
L 4122 359 
Q 3791 134 3420 21 
Q 3050 -91 2638 -91 
Q 1578 -91 968 557 
Q 359 1206 359 2328 
Q 359 3453 968 4101 
Q 1578 4750 2638 4750 
Q 3056 4750 3426 4639 
Q 3797 4528 4122 4306 
z
" transform="scale(0.015625)"/>
       <path id="DejaVuSans-66" d="M 2375 4863 
L 2375 4384 
L 1825 4384 
Q 1516 4384 1395 4259 
Q 1275 4134 1275 3809 
L 1275 3500 
L 2222 3500 
L 2222 3053 
L 1275 3053 
L 1275 0 
L 697 0 
L 697 3053 
L 147 3053 
L 147 3500 
L 697 3500 
L 697 3744 
Q 697 4328 969 4595 
Q 1241 4863 1831 4863 
L 2375 4863 
z
" transform="scale(0.015625)"/>
       <path id="DejaVuSans-64" d="M 2906 2969 
L 2906 4863 
L 3481 4863 
L 3481 0 
L 2906 0 
L 2906 525 
Q 2725 213 2448 61 
Q 2172 -91 1784 -91 
Q 1150 -91 751 415 
Q 353 922 353 1747 
Q 353 2572 751 3078 
Q 1150 3584 1784 3584 
Q 2172 3584 2448 3432 
Q 2725 3281 2906 2969 
z
M 947 1747 
Q 947 1113 1208 752 
Q 1469 391 1925 391 
Q 2381 391 2643 752 
Q 2906 1113 2906 1747 
Q 2906 2381 2643 2742 
Q 2381 3103 1925 3103 
Q 1469 3103 1208 2742 
Q 947 2381 947 1747 
z
" transform="scale(0.015625)"/>
       <path id="DejaVuSans-63" d="M 3122 3366 
L 3122 2828 
Q 2878 2963 2633 3030 
Q 2388 3097 2138 3097 
Q 1578 3097 1268 2742 
Q 959 2388 959 1747 
Q 959 1106 1268 751 
Q 1578 397 2138 397 
Q 2388 397 2633 464 
Q 2878 531 3122 666 
L 3122 134 
Q 2881 22 2623 -34 
Q 2366 -91 2075 -91 
Q 1284 -91 818 406 
Q 353 903 353 1747 
Q 353 2603 823 3093 
Q 1294 3584 2113 3584 
Q 2378 3584 2631 3529 
Q 2884 3475 3122 3366 
z
" transform="scale(0.015625)"/>
      </defs>
      <use xlink:href="#DejaVuSans-43"/>
      <use xlink:href="#DejaVuSans-6f" transform="translate(69.824219 0)"/>
      <use xlink:href="#DejaVuSans-6e" transform="translate(131.005859 0)"/>
      <use xlink:href="#DejaVuSans-66" transform="translate(194.384766 0)"/>
      <use xlink:href="#DejaVuSans-69" transform="translate(229.589844 0)"/>
      <use xlink:href="#DejaVuSans-64" transform="translate(257.373047 0)"/>
      <use xlink:href="#DejaVuSans-65" transform="translate(320.849609 0)"/>
      <use xlink:href="#DejaVuSans-6e" transform="translate(382.373047 0)"/>
      <use xlink:href="#DejaVuSans-63" transform="translate(445.751953 0)"/>
      <use xlink:href="#DejaVuSans-65" transform="translate(500.732422 0)"/>
     </g>
    </g>
    <g id="patch_9">
     <path d="M 410.1795 38.476562 
L 430.1795 38.476562 
L 430.1795 31.476562 
L 410.1795 31.476562 
z
" style="fill: #ff0000; fill-opacity: 0.15; stroke: #ff0000; stroke-opacity: 0.15; stroke-linejoin: miter"/>
    </g>
    <g id="text_19">
     <!-- Prediction -->
     <g transform="translate(438.1795 38.476562) scale(0.1 -0.1)">
      <use xlink:href="#DejaVuSans-50"/>
      <use xlink:href="#DejaVuSans-72" transform="translate(58.552734 0)"/>
      <use xlink:href="#DejaVuSans-65" transform="translate(97.416016 0)"/>
      <use xlink:href="#DejaVuSans-64" transform="translate(158.939453 0)"/>
      <use xlink:href="#DejaVuSans-69" transform="translate(222.416016 0)"/>
      <use xlink:href="#DejaVuSans-63" transform="translate(250.199219 0)"/>
      <use xlink:href="#DejaVuSans-74" transform="translate(305.179688 0)"/>
      <use xlink:href="#DejaVuSans-69" transform="translate(344.388672 0)"/>
      <use xlink:href="#DejaVuSans-6f" transform="translate(372.171875 0)"/>
      <use xlink:href="#DejaVuSans-6e" transform="translate(433.353516 0)"/>
     </g>
    </g>
    <g id="line2d_36">
     <path d="M 410.1795 49.654687 
L 420.1795 49.654687 
L 430.1795 49.654687 
" style="fill: none; stroke-dasharray: 7.4,3.2; stroke-dashoffset: 0; stroke: #ff0000; stroke-opacity: 0.8; stroke-width: 2"/>
    </g>
    <g id="text_20">
     <!-- Prey -->
     <g transform="translate(438.1795 53.154687) scale(0.1 -0.1)">
      <use xlink:href="#DejaVuSans-50"/>
      <use xlink:href="#DejaVuSans-72" transform="translate(58.552734 0)"/>
      <use xlink:href="#DejaVuSans-65" transform="translate(97.416016 0)"/>
      <use xlink:href="#DejaVuSans-79" transform="translate(158.939453 0)"/>
     </g>
    </g>
    <g id="line2d_37">
     <path d="M 410.1795 64.332812 
L 420.1795 64.332812 
L 430.1795 64.332812 
" style="fill: none; stroke-dasharray: 7.4,3.2; stroke-dashoffset: 0; stroke: #0000ff; stroke-opacity: 0.8; stroke-width: 2"/>
    </g>
    <g id="text_21">
     <!-- Predator -->
     <g transform="translate(438.1795 67.832812) scale(0.1 -0.1)">
      <use xlink:href="#DejaVuSans-50"/>
      <use xlink:href="#DejaVuSans-72" transform="translate(58.552734 0)"/>
      <use xlink:href="#DejaVuSans-65" transform="translate(97.416016 0)"/>
      <use xlink:href="#DejaVuSans-64" transform="translate(158.939453 0)"/>
      <use xlink:href="#DejaVuSans-61" transform="translate(222.416016 0)"/>
      <use xlink:href="#DejaVuSans-74" transform="translate(283.695312 0)"/>
      <use xlink:href="#DejaVuSans-6f" transform="translate(322.904297 0)"/>
      <use xlink:href="#DejaVuSans-72" transform="translate(384.085938 0)"/>
     </g>
    </g>
   </g>
  </g>
  <g id="axes_2">
   <g id="patch_10">
    <path d="M 556.347625 314.44 
L 842.995625 314.44 
L 842.995625 7.2 
L 556.347625 7.2 
z
" style="fill: #ffffff"/>
   </g>
   <g id="FillBetweenPolyCollection_9">
    <defs>
     <path id="m4750095e01" d="M 556.347625 -270.692313 
L 556.347625 -270.692313 
L 561.206066 -51.521705 
L 566.064506 -67.884417 
L 570.922947 -87.759022 
L 575.781388 -109.054791 
L 580.639828 -132.718588 
L 585.498269 -159.950093 
L 590.35671 -188.118144 
L 595.21515 -215.245207 
L 600.073591 -241.139584 
L 604.932032 -263.588735 
L 609.790472 -281.222465 
L 614.648913 -294.977962 
L 619.507354 -304.211355 
L 624.365794 -310.314699 
L 629.224235 -312.213243 
L 634.082676 -309.478464 
L 638.941117 -303.011502 
L 643.799557 -295.196486 
L 648.657998 -286.506853 
L 653.516439 -277.298782 
L 658.374879 -268.482965 
L 663.23332 -260.597237 
L 668.091761 -253.463049 
L 672.950201 -247.815595 
L 677.808642 -243.223304 
L 682.667083 -240.178902 
L 687.525523 -238.647216 
L 692.383964 -238.327659 
L 697.242405 -239.565393 
L 702.100845 -240.476827 
L 706.959286 -242.497681 
L 711.817727 -245.375583 
L 716.676167 -248.4683 
L 721.534608 -252.158942 
L 726.393049 -256.11456 
L 731.251489 -260.125839 
L 736.10993 -264.042188 
L 740.968371 -267.45593 
L 745.826811 -270.410998 
L 750.685252 -272.921324 
L 755.543693 -274.224637 
L 760.402133 -274.63975 
L 765.260574 -274.509658 
L 770.119015 -273.97168 
L 774.977456 -273.30659 
L 779.835896 -272.473376 
L 784.694337 -271.74263 
L 789.552778 -270.906298 
L 794.411218 -270.121012 
L 799.269659 -268.957456 
L 804.1281 -268.138644 
L 808.98654 -267.421354 
L 813.844981 -266.738616 
L 818.703422 -266.37532 
L 823.561862 -266.074119 
L 828.420303 -266.023042 
L 833.278744 -265.841593 
L 838.137184 -265.941924 
L 842.995625 -266.371073 
L 842.995625 -270.489271 
L 842.995625 -270.489271 
L 838.137184 -270.270609 
L 833.278744 -270.079977 
L 828.420303 -269.966323 
L 823.561862 -269.891418 
L 818.703422 -270.176025 
L 813.844981 -271.111698 
L 808.98654 -272.222695 
L 804.1281 -273.574948 
L 799.269659 -275.156312 
L 794.411218 -276.768458 
L 789.552778 -278.048415 
L 784.694337 -279.530798 
L 779.835896 -280.970092 
L 774.977456 -282.186677 
L 770.119015 -282.927269 
L 765.260574 -283.168083 
L 760.402133 -283.664847 
L 755.543693 -283.520346 
L 750.685252 -282.814229 
L 745.826811 -281.671304 
L 740.968371 -279.784698 
L 736.10993 -277.512694 
L 731.251489 -274.49245 
L 726.393049 -271.067283 
L 721.534608 -267.919397 
L 716.676167 -264.635246 
L 711.817727 -261.528697 
L 706.959286 -258.824698 
L 702.100845 -256.900849 
L 697.242405 -255.883741 
L 692.383964 -256.548501 
L 687.525523 -258.231919 
L 682.667083 -262.021583 
L 677.808642 -266.898931 
L 672.950201 -272.807224 
L 668.091761 -279.773736 
L 663.23332 -286.722252 
L 658.374879 -293.906575 
L 653.516439 -301.750067 
L 648.657998 -308.547368 
L 643.799557 -314.560462 
L 638.941117 -319.640918 
L 634.082676 -323.893124 
L 629.224235 -326.866044 
L 624.365794 -329.178151 
L 619.507354 -330.830795 
L 614.648913 -329.018297 
L 609.790472 -324.753009 
L 604.932032 -317.408222 
L 600.073591 -303.268146 
L 595.21515 -283.551311 
L 590.35671 -257.302814 
L 585.498269 -224.981896 
L 580.639828 -190.407871 
L 575.781388 -158.35292 
L 570.922947 -134.077301 
L 566.064506 -124.659028 
L 561.206066 -124.944846 
L 556.347625 -270.692313 
z
" style="stroke: #800080; stroke-opacity: 0.3"/>
    </defs>
    <g clip-path="url(#p2de5fd6403)">
     <use xlink:href="#m4750095e01" x="0" y="351.99625" style="fill: #800080; fill-opacity: 0.3; stroke: #800080; stroke-opacity: 0.3"/>
    </g>
   </g>
   <g id="matplotlib.axis_3">
    <g id="xtick_10">
     <g id="line2d_38">
      <path d="M 556.347625 314.44 
L 556.347625 7.2 
" clip-path="url(#p2de5fd6403)" style="fill: none; stroke: #b0b0b0; stroke-opacity: 0.3; stroke-width: 0.8; stroke-linecap: square"/>
     </g>
     <g id="line2d_39">
      <g>
       <use xlink:href="#m6e6bc89ab8" x="556.347625" y="314.44" style="stroke: #000000; stroke-width: 0.8"/>
      </g>
     </g>
     <g id="text_22">
      <!-- 20 -->
      <g transform="translate(549.985125 329.038437) scale(0.1 -0.1)">
       <use xlink:href="#DejaVuSans-32"/>
       <use xlink:href="#DejaVuSans-30" transform="translate(63.623047 0)"/>
      </g>
     </g>
    </g>
    <g id="xtick_11">
     <g id="line2d_40">
      <path d="M 628.009625 314.44 
L 628.009625 7.2 
" clip-path="url(#p2de5fd6403)" style="fill: none; stroke: #b0b0b0; stroke-opacity: 0.3; stroke-width: 0.8; stroke-linecap: square"/>
     </g>
     <g id="line2d_41">
      <g>
       <use xlink:href="#m6e6bc89ab8" x="628.009625" y="314.44" style="stroke: #000000; stroke-width: 0.8"/>
      </g>
     </g>
     <g id="text_23">
      <!-- 25 -->
      <g transform="translate(621.647125 329.038437) scale(0.1 -0.1)">
       <use xlink:href="#DejaVuSans-32"/>
       <use xlink:href="#DejaVuSans-35" transform="translate(63.623047 0)"/>
      </g>
     </g>
    </g>
    <g id="xtick_12">
     <g id="line2d_42">
      <path d="M 699.671625 314.44 
L 699.671625 7.2 
" clip-path="url(#p2de5fd6403)" style="fill: none; stroke: #b0b0b0; stroke-opacity: 0.3; stroke-width: 0.8; stroke-linecap: square"/>
     </g>
     <g id="line2d_43">
      <g>
       <use xlink:href="#m6e6bc89ab8" x="699.671625" y="314.44" style="stroke: #000000; stroke-width: 0.8"/>
      </g>
     </g>
     <g id="text_24">
      <!-- 30 -->
      <g transform="translate(693.309125 329.038437) scale(0.1 -0.1)">
       <use xlink:href="#DejaVuSans-33"/>
       <use xlink:href="#DejaVuSans-30" transform="translate(63.623047 0)"/>
      </g>
     </g>
    </g>
    <g id="xtick_13">
     <g id="line2d_44">
      <path d="M 771.333625 314.44 
L 771.333625 7.2 
" clip-path="url(#p2de5fd6403)" style="fill: none; stroke: #b0b0b0; stroke-opacity: 0.3; stroke-width: 0.8; stroke-linecap: square"/>
     </g>
     <g id="line2d_45">
      <g>
       <use xlink:href="#m6e6bc89ab8" x="771.333625" y="314.44" style="stroke: #000000; stroke-width: 0.8"/>
      </g>
     </g>
     <g id="text_25">
      <!-- 35 -->
      <g transform="translate(764.971125 329.038437) scale(0.1 -0.1)">
       <use xlink:href="#DejaVuSans-33"/>
       <use xlink:href="#DejaVuSans-35" transform="translate(63.623047 0)"/>
      </g>
     </g>
    </g>
    <g id="xtick_14">
     <g id="line2d_46">
      <path d="M 842.995625 314.44 
L 842.995625 7.2 
" clip-path="url(#p2de5fd6403)" style="fill: none; stroke: #b0b0b0; stroke-opacity: 0.3; stroke-width: 0.8; stroke-linecap: square"/>
     </g>
     <g id="line2d_47">
      <g>
       <use xlink:href="#m6e6bc89ab8" x="842.995625" y="314.44" style="stroke: #000000; stroke-width: 0.8"/>
      </g>
     </g>
     <g id="text_26">
      <!-- 40 -->
      <g transform="translate(836.633125 329.038437) scale(0.1 -0.1)">
       <use xlink:href="#DejaVuSans-34"/>
       <use xlink:href="#DejaVuSans-30" transform="translate(63.623047 0)"/>
      </g>
     </g>
    </g>
    <g id="text_27">
     <!-- Time (years) -->
     <g transform="translate(668.18725 342.716562) scale(0.1 -0.1)">
      <use xlink:href="#DejaVuSans-54"/>
      <use xlink:href="#DejaVuSans-69" transform="translate(57.958984 0)"/>
      <use xlink:href="#DejaVuSans-6d" transform="translate(85.742188 0)"/>
      <use xlink:href="#DejaVuSans-65" transform="translate(183.154297 0)"/>
      <use xlink:href="#DejaVuSans-20" transform="translate(244.677734 0)"/>
      <use xlink:href="#DejaVuSans-28" transform="translate(276.464844 0)"/>
      <use xlink:href="#DejaVuSans-79" transform="translate(315.478516 0)"/>
      <use xlink:href="#DejaVuSans-65" transform="translate(374.658203 0)"/>
      <use xlink:href="#DejaVuSans-61" transform="translate(436.181641 0)"/>
      <use xlink:href="#DejaVuSans-72" transform="translate(497.460938 0)"/>
      <use xlink:href="#DejaVuSans-73" transform="translate(538.574219 0)"/>
      <use xlink:href="#DejaVuSans-29" transform="translate(590.673828 0)"/>
     </g>
    </g>
   </g>
   <g id="matplotlib.axis_4">
    <g id="ytick_7">
     <g id="line2d_48">
      <path d="M 556.347625 284.426508 
L 842.995625 284.426508 
" clip-path="url(#p2de5fd6403)" style="fill: none; stroke: #b0b0b0; stroke-opacity: 0.3; stroke-width: 0.8; stroke-linecap: square"/>
     </g>
     <g id="line2d_49">
      <g>
       <use xlink:href="#me749bf9eb8" x="556.347625" y="284.426508" style="stroke: #000000; stroke-width: 0.8"/>
      </g>
     </g>
     <g id="text_28">
      <!-- 5 -->
      <g transform="translate(534.605437 288.225727) scale(0.1 -0.1)">
       <defs>
        <path id="DejaVuSans-2212" d="M 678 2272 
L 4684 2272 
L 4684 1741 
L 678 1741 
L 678 2272 
z
" transform="scale(0.015625)"/>
       </defs>
       <use xlink:href="#DejaVuSans-2212"/>
       <use xlink:href="#DejaVuSans-35" transform="translate(83.789062 0)"/>
      </g>
     </g>
    </g>
    <g id="ytick_8">
     <g id="line2d_50">
      <path d="M 556.347625 243.801994 
L 842.995625 243.801994 
" clip-path="url(#p2de5fd6403)" style="fill: none; stroke: #b0b0b0; stroke-opacity: 0.3; stroke-width: 0.8; stroke-linecap: square"/>
     </g>
     <g id="line2d_51">
      <g>
       <use xlink:href="#me749bf9eb8" x="556.347625" y="243.801994" style="stroke: #000000; stroke-width: 0.8"/>
      </g>
     </g>
     <g id="text_29">
      <!-- 4 -->
      <g transform="translate(534.605437 247.601213) scale(0.1 -0.1)">
       <use xlink:href="#DejaVuSans-2212"/>
       <use xlink:href="#DejaVuSans-34" transform="translate(83.789062 0)"/>
      </g>
     </g>
    </g>
    <g id="ytick_9">
     <g id="line2d_52">
      <path d="M 556.347625 203.17748 
L 842.995625 203.17748 
" clip-path="url(#p2de5fd6403)" style="fill: none; stroke: #b0b0b0; stroke-opacity: 0.3; stroke-width: 0.8; stroke-linecap: square"/>
     </g>
     <g id="line2d_53">
      <g>
       <use xlink:href="#me749bf9eb8" x="556.347625" y="203.17748" style="stroke: #000000; stroke-width: 0.8"/>
      </g>
     </g>
     <g id="text_30">
      <!-- 3 -->
      <g transform="translate(534.605437 206.976698) scale(0.1 -0.1)">
       <use xlink:href="#DejaVuSans-2212"/>
       <use xlink:href="#DejaVuSans-33" transform="translate(83.789062 0)"/>
      </g>
     </g>
    </g>
    <g id="ytick_10">
     <g id="line2d_54">
      <path d="M 556.347625 162.552965 
L 842.995625 162.552965 
" clip-path="url(#p2de5fd6403)" style="fill: none; stroke: #b0b0b0; stroke-opacity: 0.3; stroke-width: 0.8; stroke-linecap: square"/>
     </g>
     <g id="line2d_55">
      <g>
       <use xlink:href="#me749bf9eb8" x="556.347625" y="162.552965" style="stroke: #000000; stroke-width: 0.8"/>
      </g>
     </g>
     <g id="text_31">
      <!-- 2 -->
      <g transform="translate(534.605437 166.352184) scale(0.1 -0.1)">
       <use xlink:href="#DejaVuSans-2212"/>
       <use xlink:href="#DejaVuSans-32" transform="translate(83.789062 0)"/>
      </g>
     </g>
    </g>
    <g id="ytick_11">
     <g id="line2d_56">
      <path d="M 556.347625 121.928451 
L 842.995625 121.928451 
" clip-path="url(#p2de5fd6403)" style="fill: none; stroke: #b0b0b0; stroke-opacity: 0.3; stroke-width: 0.8; stroke-linecap: square"/>
     </g>
     <g id="line2d_57">
      <g>
       <use xlink:href="#me749bf9eb8" x="556.347625" y="121.928451" style="stroke: #000000; stroke-width: 0.8"/>
      </g>
     </g>
     <g id="text_32">
      <!-- 1 -->
      <g transform="translate(534.605437 125.72767) scale(0.1 -0.1)">
       <use xlink:href="#DejaVuSans-2212"/>
       <use xlink:href="#DejaVuSans-31" transform="translate(83.789062 0)"/>
      </g>
     </g>
    </g>
    <g id="ytick_12">
     <g id="line2d_58">
      <path d="M 556.347625 81.303937 
L 842.995625 81.303937 
" clip-path="url(#p2de5fd6403)" style="fill: none; stroke: #b0b0b0; stroke-opacity: 0.3; stroke-width: 0.8; stroke-linecap: square"/>
     </g>
     <g id="line2d_59">
      <g>
       <use xlink:href="#me749bf9eb8" x="556.347625" y="81.303937" style="stroke: #000000; stroke-width: 0.8"/>
      </g>
     </g>
     <g id="text_33">
      <!-- 0 -->
      <g transform="translate(542.985125 85.103155) scale(0.1 -0.1)">
       <use xlink:href="#DejaVuSans-30"/>
      </g>
     </g>
    </g>
    <g id="ytick_13">
     <g id="line2d_60">
      <path d="M 556.347625 40.679422 
L 842.995625 40.679422 
" clip-path="url(#p2de5fd6403)" style="fill: none; stroke: #b0b0b0; stroke-opacity: 0.3; stroke-width: 0.8; stroke-linecap: square"/>
     </g>
     <g id="line2d_61">
      <g>
       <use xlink:href="#me749bf9eb8" x="556.347625" y="40.679422" style="stroke: #000000; stroke-width: 0.8"/>
      </g>
     </g>
     <g id="text_34">
      <!-- 1 -->
      <g transform="translate(542.985125 44.478641) scale(0.1 -0.1)">
       <use xlink:href="#DejaVuSans-31"/>
      </g>
     </g>
    </g>
    <g id="text_35">
     <!-- Control Signal -->
     <g transform="translate(528.52575 195.839531) rotate(-90) scale(0.1 -0.1)">
      <defs>
       <path id="DejaVuSans-53" d="M 3425 4513 
L 3425 3897 
Q 3066 4069 2747 4153 
Q 2428 4238 2131 4238 
Q 1616 4238 1336 4038 
Q 1056 3838 1056 3469 
Q 1056 3159 1242 3001 
Q 1428 2844 1947 2747 
L 2328 2669 
Q 3034 2534 3370 2195 
Q 3706 1856 3706 1288 
Q 3706 609 3251 259 
Q 2797 -91 1919 -91 
Q 1588 -91 1214 -16 
Q 841 59 441 206 
L 441 856 
Q 825 641 1194 531 
Q 1563 422 1919 422 
Q 2459 422 2753 634 
Q 3047 847 3047 1241 
Q 3047 1584 2836 1778 
Q 2625 1972 2144 2069 
L 1759 2144 
Q 1053 2284 737 2584 
Q 422 2884 422 3419 
Q 422 4038 858 4394 
Q 1294 4750 2059 4750 
Q 2388 4750 2728 4690 
Q 3069 4631 3425 4513 
z
" transform="scale(0.015625)"/>
       <path id="DejaVuSans-67" d="M 2906 1791 
Q 2906 2416 2648 2759 
Q 2391 3103 1925 3103 
Q 1463 3103 1205 2759 
Q 947 2416 947 1791 
Q 947 1169 1205 825 
Q 1463 481 1925 481 
Q 2391 481 2648 825 
Q 2906 1169 2906 1791 
z
M 3481 434 
Q 3481 -459 3084 -895 
Q 2688 -1331 1869 -1331 
Q 1566 -1331 1297 -1286 
Q 1028 -1241 775 -1147 
L 775 -588 
Q 1028 -725 1275 -790 
Q 1522 -856 1778 -856 
Q 2344 -856 2625 -561 
Q 2906 -266 2906 331 
L 2906 616 
Q 2728 306 2450 153 
Q 2172 0 1784 0 
Q 1141 0 747 490 
Q 353 981 353 1791 
Q 353 2603 747 3093 
Q 1141 3584 1784 3584 
Q 2172 3584 2450 3431 
Q 2728 3278 2906 2969 
L 2906 3500 
L 3481 3500 
L 3481 434 
z
" transform="scale(0.015625)"/>
      </defs>
      <use xlink:href="#DejaVuSans-43"/>
      <use xlink:href="#DejaVuSans-6f" transform="translate(69.824219 0)"/>
      <use xlink:href="#DejaVuSans-6e" transform="translate(131.005859 0)"/>
      <use xlink:href="#DejaVuSans-74" transform="translate(194.384766 0)"/>
      <use xlink:href="#DejaVuSans-72" transform="translate(233.59375 0)"/>
      <use xlink:href="#DejaVuSans-6f" transform="translate(272.457031 0)"/>
      <use xlink:href="#DejaVuSans-6c" transform="translate(333.638672 0)"/>
      <use xlink:href="#DejaVuSans-20" transform="translate(361.421875 0)"/>
      <use xlink:href="#DejaVuSans-53" transform="translate(393.208984 0)"/>
      <use xlink:href="#DejaVuSans-69" transform="translate(456.685547 0)"/>
      <use xlink:href="#DejaVuSans-67" transform="translate(484.46875 0)"/>
      <use xlink:href="#DejaVuSans-6e" transform="translate(547.945312 0)"/>
      <use xlink:href="#DejaVuSans-61" transform="translate(611.324219 0)"/>
      <use xlink:href="#DejaVuSans-6c" transform="translate(672.603516 0)"/>
     </g>
    </g>
   </g>
   <g id="line2d_62">
    <path d="M 556.347625 81.303937 
L 561.206066 262.497903 
L 566.064506 255.736943 
L 570.922947 240.75166 
L 575.781388 218.593715 
L 580.639828 191.287919 
L 585.498269 161.438272 
L 590.35671 131.699982 
L 595.21515 104.304742 
L 600.073591 80.783069 
L 604.932032 61.919092 
L 609.790472 47.875759 
L 614.648913 38.391849 
L 619.507354 32.971065 
L 624.365794 31.023398 
L 629.224235 31.952033 
L 634.082676 35.196143 
L 638.941117 40.244417 
L 643.799557 46.632673 
L 648.657998 53.935029 
L 653.516439 61.754766 
L 658.374879 69.718451 
L 663.23332 77.475039 
L 668.091761 84.700314 
L 672.950201 91.10599 
L 677.808642 96.451865 
L 682.667083 100.558804 
L 687.525523 103.319934 
L 692.383964 104.707619 
L 697.242405 104.774303 
L 702.100845 103.646245 
L 706.959286 101.510842 
L 711.817727 98.598836 
L 716.676167 95.163817 
L 721.534608 91.461642 
L 726.393049 87.732146 
L 731.251489 84.184759 
L 736.10993 80.988884 
L 740.968371 78.269039 
L 745.826811 76.104183 
L 750.685252 74.530355 
L 755.543693 73.545532 
L 760.402133 73.115907 
L 765.260574 73.182755 
L 770.119015 73.669523 
L 774.977456 74.488414 
L 779.835896 75.546519 
L 784.694337 76.75137 
L 789.552778 78.015625 
L 794.411218 79.260953 
L 799.269659 80.420978 
L 804.1281 81.44331 
L 808.98654 82.29056 
L 813.844981 82.940472 
L 818.703422 83.385248 
L 823.561862 83.629953 
L 828.420303 83.690709 
L 833.278744 83.591917 
L 838.137184 83.363556 
L 842.995625 83.040858 
" clip-path="url(#p2de5fd6403)" style="fill: none; stroke: #800080; stroke-width: 3; stroke-linecap: square"/>
   </g>
   <g id="patch_11">
    <path d="M 556.347625 314.44 
L 556.347625 7.2 
" style="fill: none; stroke: #000000; stroke-width: 0.8; stroke-linejoin: miter; stroke-linecap: square"/>
   </g>
   <g id="patch_12">
    <path d="M 842.995625 314.44 
L 842.995625 7.2 
" style="fill: none; stroke: #000000; stroke-width: 0.8; stroke-linejoin: miter; stroke-linecap: square"/>
   </g>
   <g id="patch_13">
    <path d="M 556.347625 314.44 
L 842.995625 314.44 
" style="fill: none; stroke: #000000; stroke-width: 0.8; stroke-linejoin: miter; stroke-linecap: square"/>
   </g>
   <g id="patch_14">
    <path d="M 556.347625 7.2 
L 842.995625 7.2 
" style="fill: none; stroke: #000000; stroke-width: 0.8; stroke-linejoin: miter; stroke-linecap: square"/>
   </g>
   <g id="legend_2">
    <g id="patch_15">
     <path d="M 733.956562 44.55625 
L 835.995625 44.55625 
Q 837.995625 44.55625 837.995625 42.55625 
L 837.995625 14.2 
Q 837.995625 12.2 835.995625 12.2 
L 733.956562 12.2 
Q 731.956562 12.2 731.956562 14.2 
L 731.956562 42.55625 
Q 731.956562 44.55625 733.956562 44.55625 
z
" style="fill: #ffffff; opacity: 0.8; stroke: #cccccc; stroke-linejoin: miter"/>
    </g>
    <g id="patch_16">
     <path d="M 735.956562 23.798437 
L 755.956562 23.798437 
L 755.956562 16.798437 
L 735.956562 16.798437 
z
" style="fill: #800080; fill-opacity: 0.3; stroke: #800080; stroke-opacity: 0.3; stroke-linejoin: miter"/>
    </g>
    <g id="text_36">
     <!-- Confidence -->
     <g transform="translate(763.956562 23.798437) scale(0.1 -0.1)">
      <use xlink:href="#DejaVuSans-43"/>
      <use xlink:href="#DejaVuSans-6f" transform="translate(69.824219 0)"/>
      <use xlink:href="#DejaVuSans-6e" transform="translate(131.005859 0)"/>
      <use xlink:href="#DejaVuSans-66" transform="translate(194.384766 0)"/>
      <use xlink:href="#DejaVuSans-69" transform="translate(229.589844 0)"/>
      <use xlink:href="#DejaVuSans-64" transform="translate(257.373047 0)"/>
      <use xlink:href="#DejaVuSans-65" transform="translate(320.849609 0)"/>
      <use xlink:href="#DejaVuSans-6e" transform="translate(382.373047 0)"/>
      <use xlink:href="#DejaVuSans-63" transform="translate(445.751953 0)"/>
      <use xlink:href="#DejaVuSans-65" transform="translate(500.732422 0)"/>
     </g>
    </g>
    <g id="line2d_63">
     <path d="M 735.956562 34.976562 
L 745.956562 34.976562 
L 755.956562 34.976562 
" style="fill: none; stroke: #800080; stroke-width: 3; stroke-linecap: square"/>
    </g>
    <g id="text_37">
     <!-- Control Signal -->
     <g transform="translate(763.956562 38.476562) scale(0.1 -0.1)">
      <use xlink:href="#DejaVuSans-43"/>
      <use xlink:href="#DejaVuSans-6f" transform="translate(69.824219 0)"/>
      <use xlink:href="#DejaVuSans-6e" transform="translate(131.005859 0)"/>
      <use xlink:href="#DejaVuSans-74" transform="translate(194.384766 0)"/>
      <use xlink:href="#DejaVuSans-72" transform="translate(233.59375 0)"/>
      <use xlink:href="#DejaVuSans-6f" transform="translate(272.457031 0)"/>
      <use xlink:href="#DejaVuSans-6c" transform="translate(333.638672 0)"/>
      <use xlink:href="#DejaVuSans-20" transform="translate(361.421875 0)"/>
      <use xlink:href="#DejaVuSans-53" transform="translate(393.208984 0)"/>
      <use xlink:href="#DejaVuSans-69" transform="translate(456.685547 0)"/>
      <use xlink:href="#DejaVuSans-67" transform="translate(484.46875 0)"/>
      <use xlink:href="#DejaVuSans-6e" transform="translate(547.945312 0)"/>
      <use xlink:href="#DejaVuSans-61" transform="translate(611.324219 0)"/>
      <use xlink:href="#DejaVuSans-6c" transform="translate(672.603516 0)"/>
     </g>
    </g>
   </g>
  </g>
 </g>
 <defs>
  <clipPath id="p869c2b589e">
   <rect x="46.965625" y="7.2" width="456.442" height="307.24"/>
  </clipPath>
  <clipPath id="p2de5fd6403">
   <rect x="556.347625" y="7.2" width="286.648" height="307.24"/>
  </clipPath>
 </defs>
</svg>
